<?xml version="1.0" encoding="UTF-8" standalone="no"?>
<!-- Created with Inkscape (http://www.inkscape.org/) -->

<svg
   xmlns:dc="http://purl.org/dc/elements/1.1/"
   xmlns:cc="http://creativecommons.org/ns#"
   xmlns:rdf="http://www.w3.org/1999/02/22-rdf-syntax-ns#"
   xmlns:svg="http://www.w3.org/2000/svg"
   xmlns="http://www.w3.org/2000/svg"
   xmlns:sodipodi="http://sodipodi.sourceforge.net/DTD/sodipodi-0.dtd"
   xmlns:inkscape="http://www.inkscape.org/namespaces/inkscape"
   width="155.03409mm"
   height="108.85513mm"
   viewBox="0 0 155.03409 108.85514"
   version="1.1"
   id="svg1604"
   inkscape:version="0.92.3 (2405546, 2018-03-11)"
   sodipodi:docname="logo-neg.svg">
  <defs
     id="defs1598">
    <clipPath
       clipPathUnits="userSpaceOnUse"
       id="clipPath1785">
      <g
         aria-label="SALAZAR"
         transform="matrix(1.0061763,0,0,0.99386162,135.04579,-2.105297e-5)"
         style="font-style:normal;font-variant:normal;font-weight:900;font-stretch:normal;font-size:16.34276199px;line-height:1.25;font-family:Lato;-inkscape-font-specification:'Lato Heavy';letter-spacing:0px;word-spacing:0px;fill:#000080;fill-opacity:1;stroke:none;stroke-width:0.40856904"
         id="g1801">
        <path
           inkscape:connector-curvature="0"
           d="m 260.82139,-145.48626 q -0.12257,0.19612 -0.26148,0.29417 -0.13075,0.0981 -0.3432,0.0981 -0.18794,0 -0.40857,-0.1144 -0.21246,-0.12257 -0.49028,-0.26965 -0.26966,-0.14709 -0.62103,-0.26149 -0.35137,-0.12257 -0.8008,-0.12257 -0.77628,0 -1.16033,0.33503 -0.37588,0.32685 -0.37588,0.89068 0,0.35954 0.22879,0.59651 0.2288,0.23697 0.59651,0.40857 0.37589,0.1716 0.84983,0.31868 0.48211,0.13891 0.98056,0.31869 0.49846,0.17159 0.9724,0.40856 0.48211,0.23697 0.84982,0.60469 0.37589,0.36771 0.60468,0.89885 0.2288,0.52297 0.2288,1.26656 0,0.82531 -0.286,1.54439 -0.28599,0.71908 -0.83348,1.2584 -0.53931,0.53114 -1.3401,0.84165 -0.79263,0.30234 -1.80588,0.30234 -0.55565,0 -1.13582,-0.1144 -0.572,-0.1144 -1.11131,-0.31868 -0.53931,-0.21246 -1.01325,-0.49846 -0.47394,-0.286 -0.82531,-0.63737 l 0.81714,-1.29107 q 0.0981,-0.13892 0.25331,-0.2288 0.16343,-0.0981 0.35137,-0.0981 0.24514,0 0.49028,0.15526 0.25332,0.15525 0.56383,0.34319 0.31868,0.18795 0.72725,0.3432 0.40857,0.15526 0.96423,0.15526 0.75176,0 1.1685,-0.32686 0.41674,-0.33502 0.41674,-1.0541 0,-0.41674 -0.22879,-0.67823 -0.2288,-0.26148 -0.60469,-0.43308 -0.36771,-0.1716 -0.84165,-0.30234 -0.47394,-0.13075 -0.97239,-0.286 -0.49846,-0.16343 -0.9724,-0.39223 -0.47394,-0.23697 -0.84982,-0.61285 -0.36771,-0.38406 -0.59651,-0.94788 -0.2288,-0.572 -0.2288,-1.40548 0,-0.67005 0.26965,-1.30742 0.26966,-0.63737 0.79263,-1.13582 0.52297,-0.49846 1.28291,-0.79263 0.75993,-0.30234 1.7405,-0.30234 0.54748,0 1.06228,0.0899 0.52297,0.0817 0.98874,0.25331 0.46576,0.16343 0.86616,0.4004 0.40857,0.2288 0.72726,0.52297 z"
           style="font-style:normal;font-variant:normal;font-weight:900;font-stretch:normal;font-family:Lato;-inkscape-font-specification:'Lato Heavy';fill:#000080;stroke-width:0.40856904"
           id="path1787" />
        <path
           inkscape:connector-curvature="0"
           d="m 273.73319,-135.99928 h -2.1409 q -0.35954,0 -0.58017,-0.16343 -0.22062,-0.1716 -0.33502,-0.43308 l -0.70274,-2.07553 h -4.52695 l -0.70274,2.07553 q -0.0899,0.2288 -0.32685,0.41674 -0.2288,0.17977 -0.572,0.17977 h -2.15724 l 4.60866,-11.9057 h 2.82729 z m -7.64841,-4.55146 h 3.25221 l -1.09496,-3.26038 q -0.12258,-0.31052 -0.26149,-0.72726 -0.13891,-0.42491 -0.27783,-0.91519 -0.13074,0.49845 -0.26965,0.92337 -0.13074,0.42491 -0.25331,0.73542 z"
           style="font-style:normal;font-variant:normal;font-weight:900;font-stretch:normal;font-family:Lato;-inkscape-font-specification:'Lato Heavy';fill:#000080;stroke-width:0.40856904"
           id="path1789" />
        <path
           inkscape:connector-curvature="0"
           d="m 277.43381,-138.20556 h 4.41254 v 2.20628 h -7.17447 v -11.9057 h 2.76193 z"
           style="font-style:normal;font-variant:normal;font-weight:900;font-stretch:normal;font-family:Lato;-inkscape-font-specification:'Lato Heavy';fill:#000080;stroke-width:0.40856904"
           id="path1791" />
        <path
           inkscape:connector-curvature="0"
           d="m 293.93821,-135.99928 h -2.1409 q -0.35954,0 -0.58017,-0.16343 -0.22063,-0.1716 -0.33503,-0.43308 l -0.70274,-2.07553 h -4.52694 l -0.70274,2.07553 q -0.0899,0.2288 -0.32686,0.41674 -0.22879,0.17977 -0.57199,0.17977 h -2.15725 l 4.60866,-11.9057 h 2.8273 z m -7.64841,-4.55146 h 3.25221 l -1.09497,-3.26038 q -0.12257,-0.31052 -0.26148,-0.72726 -0.13892,-0.42491 -0.27783,-0.91519 -0.13074,0.49845 -0.26966,0.92337 -0.13074,0.42491 -0.25331,0.73542 z"
           style="font-style:normal;font-variant:normal;font-weight:900;font-stretch:normal;font-family:Lato;-inkscape-font-specification:'Lato Heavy';fill:#000080;stroke-width:0.40856904"
           id="path1793" />
        <path
           inkscape:connector-curvature="0"
           d="m 303.31793,-147.90498 v 0.9969 q 0,0.21246 -0.0735,0.41674 -0.0654,0.20429 -0.18794,0.38406 l -5.58923,7.98344 h 5.67094 v 2.12456 h -9.18463 v -1.06228 q 0,-0.18794 0.0654,-0.36771 0.0654,-0.18795 0.17977,-0.3432 l 5.60557,-8.00796 h -5.39311 v -2.12455 z"
           style="font-style:normal;font-variant:normal;font-weight:900;font-stretch:normal;font-family:Lato;-inkscape-font-specification:'Lato Heavy';fill:#000080;stroke-width:0.40856904"
           id="path1795" />
        <path
           inkscape:connector-curvature="0"
           d="m 315.51576,-135.99928 h -2.1409 q -0.35954,0 -0.58017,-0.16343 -0.22063,-0.1716 -0.33503,-0.43308 l -0.70273,-2.07553 h -4.52695 l -0.70274,2.07553 q -0.0899,0.2288 -0.32685,0.41674 -0.2288,0.17977 -0.572,0.17977 h -2.15724 l 4.60865,-11.9057 h 2.8273 z m -7.64841,-4.55146 h 3.25221 l -1.09497,-3.26038 q -0.12257,-0.31052 -0.26148,-0.72726 -0.13891,-0.42491 -0.27783,-0.91519 -0.13074,0.49845 -0.26965,0.92337 -0.13075,0.42491 -0.25332,0.73542 z"
           style="font-style:normal;font-variant:normal;font-weight:900;font-stretch:normal;font-family:Lato;-inkscape-font-specification:'Lato Heavy';fill:#000080;stroke-width:0.40856904"
           id="path1797" />
        <path
           inkscape:connector-curvature="0"
           d="m 319.21638,-140.40366 v 4.40438 h -2.76193 v -11.9057 h 3.87323 q 1.29108,0 2.19811,0.26965 0.91519,0.26148 1.48719,0.73542 0.58016,0.47395 0.84165,1.11948 0.26148,0.64554 0.26148,1.40548 0,0.58017 -0.15525,1.09497 -0.15526,0.51479 -0.46577,0.95605 -0.30234,0.43308 -0.75177,0.77628 -0.44125,0.3432 -1.02142,0.56382 0.27783,0.13892 0.5148,0.35137 0.23697,0.20429 0.42491,0.49029 l 2.53313,4.14289 h -2.50045 q -0.69456,0 -0.99691,-0.52297 l -1.97747,-3.4565 q -0.13891,-0.22062 -0.31051,-0.31868 -0.1716,-0.10623 -0.49029,-0.10623 z m 0,-1.90393 h 1.1113 q 0.56383,0 0.95606,-0.13891 0.40039,-0.14709 0.65371,-0.4004 0.25331,-0.25331 0.36771,-0.58834 0.1144,-0.3432 0.1144,-0.73542 0,-0.78446 -0.5148,-1.22571 -0.50663,-0.44126 -1.57708,-0.44126 h -1.1113 z"
           style="font-style:normal;font-variant:normal;font-weight:900;font-stretch:normal;font-family:Lato;-inkscape-font-specification:'Lato Heavy';fill:#000080;stroke-width:0.40856904"
           id="path1799" />
      </g>
    </clipPath>
    <clipPath
       clipPathUnits="userSpaceOnUse"
       id="clipPath1605">
      <g
         aria-label="SALAZAR"
         style="font-style:normal;font-variant:normal;font-weight:900;font-stretch:normal;font-size:16.34276199px;line-height:1.25;font-family:Lato;-inkscape-font-specification:'Lato Heavy';letter-spacing:0px;word-spacing:0px;fill:#000080;fill-opacity:1;stroke:none;stroke-width:0.40856904"
         id="g1621">
        <path
           inkscape:connector-curvature="0"
           d="m 260.82139,-145.48626 q -0.12257,0.19612 -0.26148,0.29417 -0.13075,0.0981 -0.3432,0.0981 -0.18794,0 -0.40857,-0.1144 -0.21246,-0.12257 -0.49028,-0.26965 -0.26966,-0.14709 -0.62103,-0.26149 -0.35137,-0.12257 -0.8008,-0.12257 -0.77628,0 -1.16033,0.33503 -0.37588,0.32685 -0.37588,0.89068 0,0.35954 0.22879,0.59651 0.2288,0.23697 0.59651,0.40857 0.37589,0.1716 0.84983,0.31868 0.48211,0.13891 0.98056,0.31869 0.49846,0.17159 0.9724,0.40856 0.48211,0.23697 0.84982,0.60469 0.37589,0.36771 0.60468,0.89885 0.2288,0.52297 0.2288,1.26656 0,0.82531 -0.286,1.54439 -0.28599,0.71908 -0.83348,1.2584 -0.53931,0.53114 -1.3401,0.84165 -0.79263,0.30234 -1.80588,0.30234 -0.55565,0 -1.13582,-0.1144 -0.572,-0.1144 -1.11131,-0.31868 -0.53931,-0.21246 -1.01325,-0.49846 -0.47394,-0.286 -0.82531,-0.63737 l 0.81714,-1.29107 q 0.0981,-0.13892 0.25331,-0.2288 0.16343,-0.0981 0.35137,-0.0981 0.24514,0 0.49028,0.15526 0.25332,0.15525 0.56383,0.34319 0.31868,0.18795 0.72725,0.3432 0.40857,0.15526 0.96423,0.15526 0.75176,0 1.1685,-0.32686 0.41674,-0.33502 0.41674,-1.0541 0,-0.41674 -0.22879,-0.67823 -0.2288,-0.26148 -0.60469,-0.43308 -0.36771,-0.1716 -0.84165,-0.30234 -0.47394,-0.13075 -0.97239,-0.286 -0.49846,-0.16343 -0.9724,-0.39223 -0.47394,-0.23697 -0.84982,-0.61285 -0.36771,-0.38406 -0.59651,-0.94788 -0.2288,-0.572 -0.2288,-1.40548 0,-0.67005 0.26965,-1.30742 0.26966,-0.63737 0.79263,-1.13582 0.52297,-0.49846 1.28291,-0.79263 0.75993,-0.30234 1.7405,-0.30234 0.54748,0 1.06228,0.0899 0.52297,0.0817 0.98874,0.25331 0.46576,0.16343 0.86616,0.4004 0.40857,0.2288 0.72726,0.52297 z"
           style="font-style:normal;font-variant:normal;font-weight:900;font-stretch:normal;font-family:Lato;-inkscape-font-specification:'Lato Heavy';fill:#000080;stroke-width:0.40856904"
           id="path1607" />
        <path
           inkscape:connector-curvature="0"
           d="m 273.73319,-135.99928 h -2.1409 q -0.35954,0 -0.58017,-0.16343 -0.22062,-0.1716 -0.33502,-0.43308 l -0.70274,-2.07553 h -4.52695 l -0.70274,2.07553 q -0.0899,0.2288 -0.32685,0.41674 -0.2288,0.17977 -0.572,0.17977 h -2.15724 l 4.60866,-11.9057 h 2.82729 z m -7.64841,-4.55146 h 3.25221 l -1.09496,-3.26038 q -0.12258,-0.31052 -0.26149,-0.72726 -0.13891,-0.42491 -0.27783,-0.91519 -0.13074,0.49845 -0.26965,0.92337 -0.13074,0.42491 -0.25331,0.73542 z"
           style="font-style:normal;font-variant:normal;font-weight:900;font-stretch:normal;font-family:Lato;-inkscape-font-specification:'Lato Heavy';fill:#000080;stroke-width:0.40856904"
           id="path1609" />
        <path
           inkscape:connector-curvature="0"
           d="m 277.43381,-138.20556 h 4.41254 v 2.20628 h -7.17447 v -11.9057 h 2.76193 z"
           style="font-style:normal;font-variant:normal;font-weight:900;font-stretch:normal;font-family:Lato;-inkscape-font-specification:'Lato Heavy';fill:#000080;stroke-width:0.40856904"
           id="path1611" />
        <path
           inkscape:connector-curvature="0"
           d="m 293.93821,-135.99928 h -2.1409 q -0.35954,0 -0.58017,-0.16343 -0.22063,-0.1716 -0.33503,-0.43308 l -0.70274,-2.07553 h -4.52694 l -0.70274,2.07553 q -0.0899,0.2288 -0.32686,0.41674 -0.22879,0.17977 -0.57199,0.17977 h -2.15725 l 4.60866,-11.9057 h 2.8273 z m -7.64841,-4.55146 h 3.25221 l -1.09497,-3.26038 q -0.12257,-0.31052 -0.26148,-0.72726 -0.13892,-0.42491 -0.27783,-0.91519 -0.13074,0.49845 -0.26966,0.92337 -0.13074,0.42491 -0.25331,0.73542 z"
           style="font-style:normal;font-variant:normal;font-weight:900;font-stretch:normal;font-family:Lato;-inkscape-font-specification:'Lato Heavy';fill:#000080;stroke-width:0.40856904"
           id="path1613" />
        <path
           inkscape:connector-curvature="0"
           d="m 303.31793,-147.90498 v 0.9969 q 0,0.21246 -0.0735,0.41674 -0.0654,0.20429 -0.18794,0.38406 l -5.58923,7.98344 h 5.67094 v 2.12456 h -9.18463 v -1.06228 q 0,-0.18794 0.0654,-0.36771 0.0654,-0.18795 0.17977,-0.3432 l 5.60557,-8.00796 h -5.39311 v -2.12455 z"
           style="font-style:normal;font-variant:normal;font-weight:900;font-stretch:normal;font-family:Lato;-inkscape-font-specification:'Lato Heavy';fill:#000080;stroke-width:0.40856904"
           id="path1615" />
        <path
           inkscape:connector-curvature="0"
           d="m 315.51576,-135.99928 h -2.1409 q -0.35954,0 -0.58017,-0.16343 -0.22063,-0.1716 -0.33503,-0.43308 l -0.70273,-2.07553 h -4.52695 l -0.70274,2.07553 q -0.0899,0.2288 -0.32685,0.41674 -0.2288,0.17977 -0.572,0.17977 h -2.15724 l 4.60865,-11.9057 h 2.8273 z m -7.64841,-4.55146 h 3.25221 l -1.09497,-3.26038 q -0.12257,-0.31052 -0.26148,-0.72726 -0.13891,-0.42491 -0.27783,-0.91519 -0.13074,0.49845 -0.26965,0.92337 -0.13075,0.42491 -0.25332,0.73542 z"
           style="font-style:normal;font-variant:normal;font-weight:900;font-stretch:normal;font-family:Lato;-inkscape-font-specification:'Lato Heavy';fill:#000080;stroke-width:0.40856904"
           id="path1617" />
        <path
           inkscape:connector-curvature="0"
           d="m 319.21638,-140.40366 v 4.40438 h -2.76193 v -11.9057 h 3.87323 q 1.29108,0 2.19811,0.26965 0.91519,0.26148 1.48719,0.73542 0.58016,0.47395 0.84165,1.11948 0.26148,0.64554 0.26148,1.40548 0,0.58017 -0.15525,1.09497 -0.15526,0.51479 -0.46577,0.95605 -0.30234,0.43308 -0.75177,0.77628 -0.44125,0.3432 -1.02142,0.56382 0.27783,0.13892 0.5148,0.35137 0.23697,0.20429 0.42491,0.49029 l 2.53313,4.14289 h -2.50045 q -0.69456,0 -0.99691,-0.52297 l -1.97747,-3.4565 q -0.13891,-0.22062 -0.31051,-0.31868 -0.1716,-0.10623 -0.49029,-0.10623 z m 0,-1.90393 h 1.1113 q 0.56383,0 0.95606,-0.13891 0.40039,-0.14709 0.65371,-0.4004 0.25331,-0.25331 0.36771,-0.58834 0.1144,-0.3432 0.1144,-0.73542 0,-0.78446 -0.5148,-1.22571 -0.50663,-0.44126 -1.57708,-0.44126 h -1.1113 z"
           style="font-style:normal;font-variant:normal;font-weight:900;font-stretch:normal;font-family:Lato;-inkscape-font-specification:'Lato Heavy';fill:#000080;stroke-width:0.40856904"
           id="path1619" />
      </g>
    </clipPath>
  </defs>
  <sodipodi:namedview
     id="base"
     pagecolor="#ffffff"
     bordercolor="#666666"
     borderopacity="1.0"
     inkscape:pageopacity="0.0"
     inkscape:pageshadow="2"
     inkscape:zoom="0.35"
     inkscape:cx="-311.18745"
     inkscape:cy="19.991704"
     inkscape:document-units="mm"
     inkscape:current-layer="layer1"
     showgrid="false"
     fit-margin-top="0"
     fit-margin-left="0"
     fit-margin-right="0"
     fit-margin-bottom="0"
     inkscape:window-width="1366"
     inkscape:window-height="692"
     inkscape:window-x="1366"
     inkscape:window-y="0"
     inkscape:window-maximized="1" />
  <metadata
     id="metadata1601">
    <rdf:RDF>
      <cc:Work
         rdf:about="">
        <dc:format>image/svg+xml</dc:format>
        <dc:type
           rdf:resource="http://purl.org/dc/dcmitype/StillImage" />
        <dc:title></dc:title>
      </cc:Work>
    </rdf:RDF>
  </metadata>
  <g
     inkscape:label="Layer 1"
     inkscape:groupmode="layer"
     id="layer1"
     transform="translate(-36.221917,-45.26767)">
    <g
       id="g2358"
       transform="translate(-1065.166,392.0014)"
       inkscape:export-filename="/home/josedan/Documents/3Dmensional/Clients/AESalazar/arte-estilo-salazar-web/public/logo-neg.svg.png"
       inkscape:export-xdpi="96"
       inkscape:export-ydpi="96">
      <path
         sodipodi:nodetypes="czzzc"
         inkscape:connector-curvature="0"
         id="path1861"
         d="m 1251.3971,-276.67743 c -4.3645,-2.90862 -14.3544,3.63941 -20.5448,3.26903 -6.1903,-0.37037 -8.4125,1.98799 -13.2883,-0.6575 -4.8759,-2.6455 -38.1161,2.85953 -41.7216,-1.05288 -3.6054,-3.91242 -27.5303,1.61535 -33.026,-2.50186"
         style="opacity:0.23999999;fill:none;stroke:#b21619;stroke-width:0.95292366px;stroke-linecap:butt;stroke-linejoin:miter;stroke-opacity:1" />
      <path
         style="fill:#580f11;fill-opacity:1;stroke:#feab54;stroke-width:0.94800001;stroke-linecap:butt;stroke-linejoin:round;stroke-miterlimit:4;stroke-dasharray:none;stroke-opacity:1"
         d="m 1142.7811,-278.05936 -36.1511,39.70676 h 108.4541 c 21.1347,0 36.1511,-21.32928 36.1511,-39.70675 z"
         id="path2129"
         inkscape:connector-curvature="0"
         sodipodi:nodetypes="ccccc" />
      <text
         id="text1879"
         y="-241.63086"
         x="1224.7332"
         style="font-style:normal;font-variant:normal;font-weight:normal;font-stretch:normal;font-size:17.68071175px;line-height:1.25;font-family:'Infinite Stroke';-inkscape-font-specification:'Infinite Stroke, Normal';font-variant-ligatures:normal;font-variant-caps:normal;font-variant-numeric:normal;font-feature-settings:normal;text-align:start;letter-spacing:0px;word-spacing:0px;writing-mode:lr-tb;text-anchor:start;fill:#ffac55;fill-opacity:0.99215686;stroke:none;stroke-width:0.94718093"
         xml:space="preserve"
         transform="scale(0.954184,1.0480159)"><tspan
           sodipodi:role="line"
           id="tspan1877"
           x="1224.7332"
           y="-241.63086"
           style="fill:#ffac55;fill-opacity:0.99215686;stroke-width:0.94718093">Estilo</tspan></text>
      <path
         sodipodi:nodetypes="ccccc"
         inkscape:connector-curvature="0"
         id="path2127"
         d="m 1215.0842,-306.55297 36.1511,-39.70676 h -108.4541 c -21.1347,0 -36.1511,21.32928 -36.1511,39.70675 z"
         style="fill:#580f11;fill-opacity:1;stroke:#feab54;stroke-width:0.94800001;stroke-linecap:butt;stroke-linejoin:round;stroke-miterlimit:4;stroke-dasharray:none;stroke-opacity:1" />
      <text
         id="text1906"
         y="-306.57593"
         x="1206.0227"
         style="font-style:normal;font-variant:normal;font-weight:normal;font-stretch:normal;font-size:17.68071175px;line-height:1.25;font-family:'Infinite Stroke';-inkscape-font-specification:'Infinite Stroke, Normal';font-variant-ligatures:normal;font-variant-caps:normal;font-variant-numeric:normal;font-feature-settings:normal;text-align:start;letter-spacing:0px;word-spacing:0px;writing-mode:lr-tb;text-anchor:start;fill:#ffac55;fill-opacity:0.99215686;stroke:none;stroke-width:0.94718093"
         xml:space="preserve"
         transform="scale(0.954184,1.0480159)"><tspan
           sodipodi:role="line"
           id="tspan1904"
           x="1206.0227"
           y="-306.57593"
           style="fill:#ffac55;fill-opacity:0.99215686;stroke-width:0.94718093">Arte</tspan></text>
      <path
         inkscape:connector-curvature="0"
         id="path1910"
         d="m 1101.8478,-301.86845 v 29.63734 h 154.1517 v -29.63734 z"
         style="fill:#feab54;fill-opacity:1;stroke:#feab54;stroke-width:0.84500003;stroke-linecap:butt;stroke-linejoin:round;stroke-miterlimit:4;stroke-dasharray:none;stroke-opacity:1" />
      <path
         style="fill:#c18240;fill-opacity:1;stroke:#c18240;stroke-width:0.26540467;stroke-linecap:butt;stroke-linejoin:round;stroke-miterlimit:4;stroke-dasharray:none;stroke-opacity:1;paint-order:stroke fill markers"
         d="m 1101.5206,-301.86997 4.7906,-4.68148 H 1251.46 l 4.784,4.68148 z"
         id="path1912"
         inkscape:connector-curvature="0" />
      <text
         id="text2310"
         y="-277.72028"
         x="1121.4592"
         style="font-style:normal;font-variant:normal;font-weight:900;font-stretch:normal;font-size:25.61292076px;line-height:1.25;font-family:Lato;-inkscape-font-specification:'Lato, Heavy';font-variant-ligatures:normal;font-variant-caps:normal;font-variant-numeric:normal;font-feature-settings:normal;text-align:start;letter-spacing:0px;word-spacing:0px;writing-mode:lr-tb;text-anchor:start;fill:#580f11;fill-opacity:1;stroke:none;stroke-width:0.64032304"
         xml:space="preserve"><tspan
           style="font-style:normal;font-variant:normal;font-weight:900;font-stretch:normal;font-size:25.61292076px;font-family:Lato;-inkscape-font-specification:'Lato, Heavy';font-variant-ligatures:normal;font-variant-caps:normal;font-variant-numeric:normal;font-feature-settings:normal;text-align:start;writing-mode:lr-tb;text-anchor:start;fill:#580f11;fill-opacity:1;stroke-width:0.64032304"
           y="-277.72028"
           x="1121.4592"
           id="tspan2308"
           sodipodi:role="line">SALAZAR</tspan></text>
    </g>
  </g>
</svg>
