<?xml version="1.0" encoding="UTF-8" standalone="no"?>
<!-- Created with Inkscape (http://www.inkscape.org/) -->

<svg
   xmlns:dc="http://purl.org/dc/elements/1.1/"
   xmlns:cc="http://creativecommons.org/ns#"
   xmlns:rdf="http://www.w3.org/1999/02/22-rdf-syntax-ns#"
   xmlns:svg="http://www.w3.org/2000/svg"
   xmlns="http://www.w3.org/2000/svg"
   xmlns:xlink="http://www.w3.org/1999/xlink"
   xmlns:sodipodi="http://sodipodi.sourceforge.net/DTD/sodipodi-0.dtd"
   xmlns:inkscape="http://www.inkscape.org/namespaces/inkscape"
   width="155.03409mm"
   height="108.85477mm"
   viewBox="0 0 155.03409 108.85477"
   version="1.1"
   id="svg1604"
   inkscape:version="0.92.3 (2405546, 2018-03-11)"
   sodipodi:docname="logo.svg">
  <defs
     id="defs1598">
    <linearGradient
       inkscape:collect="always"
       xlink:href="#linearGradient1143"
       id="linearGradient2296"
       gradientUnits="userSpaceOnUse"
       gradientTransform="matrix(-1.4039068,0,0,-1.4039068,1772.807,-375.72001)"
       x1="65.464836"
       y1="-160.76949"
       x2="65.464836"
       y2="-194.22289" />
    <linearGradient
       id="linearGradient1143"
       inkscape:collect="always">
      <stop
         id="stop1139"
         offset="0"
         style="stop-color:#250607;stop-opacity:1" />
      <stop
         id="stop1141"
         offset="1"
         style="stop-color:#8d191c;stop-opacity:1" />
    </linearGradient>
    <linearGradient
       inkscape:collect="always"
       xlink:href="#linearGradient1143"
       id="linearGradient2300"
       gradientUnits="userSpaceOnUse"
       gradientTransform="matrix(1.4039068,0,0,1.4039068,1444.379,39.902295)"
       x1="65.464836"
       y1="-160.76949"
       x2="65.464836"
       y2="-194.22289" />
    <clipPath
       clipPathUnits="userSpaceOnUse"
       id="clipPath1785">
      <g
         aria-label="SALAZAR"
         transform="matrix(1.0061763,0,0,0.99386162,135.04579,-2.105297e-5)"
         style="font-style:normal;font-variant:normal;font-weight:900;font-stretch:normal;font-size:16.34276199px;line-height:1.25;font-family:Lato;-inkscape-font-specification:'Lato Heavy';letter-spacing:0px;word-spacing:0px;fill:#000080;fill-opacity:1;stroke:none;stroke-width:0.40856904"
         id="g1801">
        <path
           inkscape:connector-curvature="0"
           d="m 260.82139,-145.48626 q -0.12257,0.19612 -0.26148,0.29417 -0.13075,0.0981 -0.3432,0.0981 -0.18794,0 -0.40857,-0.1144 -0.21246,-0.12257 -0.49028,-0.26965 -0.26966,-0.14709 -0.62103,-0.26149 -0.35137,-0.12257 -0.8008,-0.12257 -0.77628,0 -1.16033,0.33503 -0.37588,0.32685 -0.37588,0.89068 0,0.35954 0.22879,0.59651 0.2288,0.23697 0.59651,0.40857 0.37589,0.1716 0.84983,0.31868 0.48211,0.13891 0.98056,0.31869 0.49846,0.17159 0.9724,0.40856 0.48211,0.23697 0.84982,0.60469 0.37589,0.36771 0.60468,0.89885 0.2288,0.52297 0.2288,1.26656 0,0.82531 -0.286,1.54439 -0.28599,0.71908 -0.83348,1.2584 -0.53931,0.53114 -1.3401,0.84165 -0.79263,0.30234 -1.80588,0.30234 -0.55565,0 -1.13582,-0.1144 -0.572,-0.1144 -1.11131,-0.31868 -0.53931,-0.21246 -1.01325,-0.49846 -0.47394,-0.286 -0.82531,-0.63737 l 0.81714,-1.29107 q 0.0981,-0.13892 0.25331,-0.2288 0.16343,-0.0981 0.35137,-0.0981 0.24514,0 0.49028,0.15526 0.25332,0.15525 0.56383,0.34319 0.31868,0.18795 0.72725,0.3432 0.40857,0.15526 0.96423,0.15526 0.75176,0 1.1685,-0.32686 0.41674,-0.33502 0.41674,-1.0541 0,-0.41674 -0.22879,-0.67823 -0.2288,-0.26148 -0.60469,-0.43308 -0.36771,-0.1716 -0.84165,-0.30234 -0.47394,-0.13075 -0.97239,-0.286 -0.49846,-0.16343 -0.9724,-0.39223 -0.47394,-0.23697 -0.84982,-0.61285 -0.36771,-0.38406 -0.59651,-0.94788 -0.2288,-0.572 -0.2288,-1.40548 0,-0.67005 0.26965,-1.30742 0.26966,-0.63737 0.79263,-1.13582 0.52297,-0.49846 1.28291,-0.79263 0.75993,-0.30234 1.7405,-0.30234 0.54748,0 1.06228,0.0899 0.52297,0.0817 0.98874,0.25331 0.46576,0.16343 0.86616,0.4004 0.40857,0.2288 0.72726,0.52297 z"
           style="font-style:normal;font-variant:normal;font-weight:900;font-stretch:normal;font-family:Lato;-inkscape-font-specification:'Lato Heavy';fill:#000080;stroke-width:0.40856904"
           id="path1787" />
        <path
           inkscape:connector-curvature="0"
           d="m 273.73319,-135.99928 h -2.1409 q -0.35954,0 -0.58017,-0.16343 -0.22062,-0.1716 -0.33502,-0.43308 l -0.70274,-2.07553 h -4.52695 l -0.70274,2.07553 q -0.0899,0.2288 -0.32685,0.41674 -0.2288,0.17977 -0.572,0.17977 h -2.15724 l 4.60866,-11.9057 h 2.82729 z m -7.64841,-4.55146 h 3.25221 l -1.09496,-3.26038 q -0.12258,-0.31052 -0.26149,-0.72726 -0.13891,-0.42491 -0.27783,-0.91519 -0.13074,0.49845 -0.26965,0.92337 -0.13074,0.42491 -0.25331,0.73542 z"
           style="font-style:normal;font-variant:normal;font-weight:900;font-stretch:normal;font-family:Lato;-inkscape-font-specification:'Lato Heavy';fill:#000080;stroke-width:0.40856904"
           id="path1789" />
        <path
           inkscape:connector-curvature="0"
           d="m 277.43381,-138.20556 h 4.41254 v 2.20628 h -7.17447 v -11.9057 h 2.76193 z"
           style="font-style:normal;font-variant:normal;font-weight:900;font-stretch:normal;font-family:Lato;-inkscape-font-specification:'Lato Heavy';fill:#000080;stroke-width:0.40856904"
           id="path1791" />
        <path
           inkscape:connector-curvature="0"
           d="m 293.93821,-135.99928 h -2.1409 q -0.35954,0 -0.58017,-0.16343 -0.22063,-0.1716 -0.33503,-0.43308 l -0.70274,-2.07553 h -4.52694 l -0.70274,2.07553 q -0.0899,0.2288 -0.32686,0.41674 -0.22879,0.17977 -0.57199,0.17977 h -2.15725 l 4.60866,-11.9057 h 2.8273 z m -7.64841,-4.55146 h 3.25221 l -1.09497,-3.26038 q -0.12257,-0.31052 -0.26148,-0.72726 -0.13892,-0.42491 -0.27783,-0.91519 -0.13074,0.49845 -0.26966,0.92337 -0.13074,0.42491 -0.25331,0.73542 z"
           style="font-style:normal;font-variant:normal;font-weight:900;font-stretch:normal;font-family:Lato;-inkscape-font-specification:'Lato Heavy';fill:#000080;stroke-width:0.40856904"
           id="path1793" />
        <path
           inkscape:connector-curvature="0"
           d="m 303.31793,-147.90498 v 0.9969 q 0,0.21246 -0.0735,0.41674 -0.0654,0.20429 -0.18794,0.38406 l -5.58923,7.98344 h 5.67094 v 2.12456 h -9.18463 v -1.06228 q 0,-0.18794 0.0654,-0.36771 0.0654,-0.18795 0.17977,-0.3432 l 5.60557,-8.00796 h -5.39311 v -2.12455 z"
           style="font-style:normal;font-variant:normal;font-weight:900;font-stretch:normal;font-family:Lato;-inkscape-font-specification:'Lato Heavy';fill:#000080;stroke-width:0.40856904"
           id="path1795" />
        <path
           inkscape:connector-curvature="0"
           d="m 315.51576,-135.99928 h -2.1409 q -0.35954,0 -0.58017,-0.16343 -0.22063,-0.1716 -0.33503,-0.43308 l -0.70273,-2.07553 h -4.52695 l -0.70274,2.07553 q -0.0899,0.2288 -0.32685,0.41674 -0.2288,0.17977 -0.572,0.17977 h -2.15724 l 4.60865,-11.9057 h 2.8273 z m -7.64841,-4.55146 h 3.25221 l -1.09497,-3.26038 q -0.12257,-0.31052 -0.26148,-0.72726 -0.13891,-0.42491 -0.27783,-0.91519 -0.13074,0.49845 -0.26965,0.92337 -0.13075,0.42491 -0.25332,0.73542 z"
           style="font-style:normal;font-variant:normal;font-weight:900;font-stretch:normal;font-family:Lato;-inkscape-font-specification:'Lato Heavy';fill:#000080;stroke-width:0.40856904"
           id="path1797" />
        <path
           inkscape:connector-curvature="0"
           d="m 319.21638,-140.40366 v 4.40438 h -2.76193 v -11.9057 h 3.87323 q 1.29108,0 2.19811,0.26965 0.91519,0.26148 1.48719,0.73542 0.58016,0.47395 0.84165,1.11948 0.26148,0.64554 0.26148,1.40548 0,0.58017 -0.15525,1.09497 -0.15526,0.51479 -0.46577,0.95605 -0.30234,0.43308 -0.75177,0.77628 -0.44125,0.3432 -1.02142,0.56382 0.27783,0.13892 0.5148,0.35137 0.23697,0.20429 0.42491,0.49029 l 2.53313,4.14289 h -2.50045 q -0.69456,0 -0.99691,-0.52297 l -1.97747,-3.4565 q -0.13891,-0.22062 -0.31051,-0.31868 -0.1716,-0.10623 -0.49029,-0.10623 z m 0,-1.90393 h 1.1113 q 0.56383,0 0.95606,-0.13891 0.40039,-0.14709 0.65371,-0.4004 0.25331,-0.25331 0.36771,-0.58834 0.1144,-0.3432 0.1144,-0.73542 0,-0.78446 -0.5148,-1.22571 -0.50663,-0.44126 -1.57708,-0.44126 h -1.1113 z"
           style="font-style:normal;font-variant:normal;font-weight:900;font-stretch:normal;font-family:Lato;-inkscape-font-specification:'Lato Heavy';fill:#000080;stroke-width:0.40856904"
           id="path1799" />
      </g>
    </clipPath>
    <radialGradient
       inkscape:collect="always"
       xlink:href="#linearGradient1764"
       id="radialGradient2304"
       gradientUnits="userSpaceOnUse"
       gradientTransform="translate(135.07802)"
       cx="291.54703"
       cy="-141.08078"
       fx="291.54703"
       fy="-141.08078"
       r="52.442398" />
    <linearGradient
       id="linearGradient1764"
       inkscape:collect="always">
      <stop
         id="stop1758"
         offset="0"
         style="stop-color:#580f11;stop-opacity:1" />
      <stop
         style="stop-color:#b15322;stop-opacity:1"
         offset="0.48178107"
         id="stop1760" />
      <stop
         id="stop1762"
         offset="1"
         style="stop-color:#580f11;stop-opacity:1" />
    </linearGradient>
    <clipPath
       clipPathUnits="userSpaceOnUse"
       id="clipPath1605">
      <g
         aria-label="SALAZAR"
         style="font-style:normal;font-variant:normal;font-weight:900;font-stretch:normal;font-size:16.34276199px;line-height:1.25;font-family:Lato;-inkscape-font-specification:'Lato Heavy';letter-spacing:0px;word-spacing:0px;fill:#000080;fill-opacity:1;stroke:none;stroke-width:0.40856904"
         id="g1621">
        <path
           inkscape:connector-curvature="0"
           d="m 260.82139,-145.48626 q -0.12257,0.19612 -0.26148,0.29417 -0.13075,0.0981 -0.3432,0.0981 -0.18794,0 -0.40857,-0.1144 -0.21246,-0.12257 -0.49028,-0.26965 -0.26966,-0.14709 -0.62103,-0.26149 -0.35137,-0.12257 -0.8008,-0.12257 -0.77628,0 -1.16033,0.33503 -0.37588,0.32685 -0.37588,0.89068 0,0.35954 0.22879,0.59651 0.2288,0.23697 0.59651,0.40857 0.37589,0.1716 0.84983,0.31868 0.48211,0.13891 0.98056,0.31869 0.49846,0.17159 0.9724,0.40856 0.48211,0.23697 0.84982,0.60469 0.37589,0.36771 0.60468,0.89885 0.2288,0.52297 0.2288,1.26656 0,0.82531 -0.286,1.54439 -0.28599,0.71908 -0.83348,1.2584 -0.53931,0.53114 -1.3401,0.84165 -0.79263,0.30234 -1.80588,0.30234 -0.55565,0 -1.13582,-0.1144 -0.572,-0.1144 -1.11131,-0.31868 -0.53931,-0.21246 -1.01325,-0.49846 -0.47394,-0.286 -0.82531,-0.63737 l 0.81714,-1.29107 q 0.0981,-0.13892 0.25331,-0.2288 0.16343,-0.0981 0.35137,-0.0981 0.24514,0 0.49028,0.15526 0.25332,0.15525 0.56383,0.34319 0.31868,0.18795 0.72725,0.3432 0.40857,0.15526 0.96423,0.15526 0.75176,0 1.1685,-0.32686 0.41674,-0.33502 0.41674,-1.0541 0,-0.41674 -0.22879,-0.67823 -0.2288,-0.26148 -0.60469,-0.43308 -0.36771,-0.1716 -0.84165,-0.30234 -0.47394,-0.13075 -0.97239,-0.286 -0.49846,-0.16343 -0.9724,-0.39223 -0.47394,-0.23697 -0.84982,-0.61285 -0.36771,-0.38406 -0.59651,-0.94788 -0.2288,-0.572 -0.2288,-1.40548 0,-0.67005 0.26965,-1.30742 0.26966,-0.63737 0.79263,-1.13582 0.52297,-0.49846 1.28291,-0.79263 0.75993,-0.30234 1.7405,-0.30234 0.54748,0 1.06228,0.0899 0.52297,0.0817 0.98874,0.25331 0.46576,0.16343 0.86616,0.4004 0.40857,0.2288 0.72726,0.52297 z"
           style="font-style:normal;font-variant:normal;font-weight:900;font-stretch:normal;font-family:Lato;-inkscape-font-specification:'Lato Heavy';fill:#000080;stroke-width:0.40856904"
           id="path1607" />
        <path
           inkscape:connector-curvature="0"
           d="m 273.73319,-135.99928 h -2.1409 q -0.35954,0 -0.58017,-0.16343 -0.22062,-0.1716 -0.33502,-0.43308 l -0.70274,-2.07553 h -4.52695 l -0.70274,2.07553 q -0.0899,0.2288 -0.32685,0.41674 -0.2288,0.17977 -0.572,0.17977 h -2.15724 l 4.60866,-11.9057 h 2.82729 z m -7.64841,-4.55146 h 3.25221 l -1.09496,-3.26038 q -0.12258,-0.31052 -0.26149,-0.72726 -0.13891,-0.42491 -0.27783,-0.91519 -0.13074,0.49845 -0.26965,0.92337 -0.13074,0.42491 -0.25331,0.73542 z"
           style="font-style:normal;font-variant:normal;font-weight:900;font-stretch:normal;font-family:Lato;-inkscape-font-specification:'Lato Heavy';fill:#000080;stroke-width:0.40856904"
           id="path1609" />
        <path
           inkscape:connector-curvature="0"
           d="m 277.43381,-138.20556 h 4.41254 v 2.20628 h -7.17447 v -11.9057 h 2.76193 z"
           style="font-style:normal;font-variant:normal;font-weight:900;font-stretch:normal;font-family:Lato;-inkscape-font-specification:'Lato Heavy';fill:#000080;stroke-width:0.40856904"
           id="path1611" />
        <path
           inkscape:connector-curvature="0"
           d="m 293.93821,-135.99928 h -2.1409 q -0.35954,0 -0.58017,-0.16343 -0.22063,-0.1716 -0.33503,-0.43308 l -0.70274,-2.07553 h -4.52694 l -0.70274,2.07553 q -0.0899,0.2288 -0.32686,0.41674 -0.22879,0.17977 -0.57199,0.17977 h -2.15725 l 4.60866,-11.9057 h 2.8273 z m -7.64841,-4.55146 h 3.25221 l -1.09497,-3.26038 q -0.12257,-0.31052 -0.26148,-0.72726 -0.13892,-0.42491 -0.27783,-0.91519 -0.13074,0.49845 -0.26966,0.92337 -0.13074,0.42491 -0.25331,0.73542 z"
           style="font-style:normal;font-variant:normal;font-weight:900;font-stretch:normal;font-family:Lato;-inkscape-font-specification:'Lato Heavy';fill:#000080;stroke-width:0.40856904"
           id="path1613" />
        <path
           inkscape:connector-curvature="0"
           d="m 303.31793,-147.90498 v 0.9969 q 0,0.21246 -0.0735,0.41674 -0.0654,0.20429 -0.18794,0.38406 l -5.58923,7.98344 h 5.67094 v 2.12456 h -9.18463 v -1.06228 q 0,-0.18794 0.0654,-0.36771 0.0654,-0.18795 0.17977,-0.3432 l 5.60557,-8.00796 h -5.39311 v -2.12455 z"
           style="font-style:normal;font-variant:normal;font-weight:900;font-stretch:normal;font-family:Lato;-inkscape-font-specification:'Lato Heavy';fill:#000080;stroke-width:0.40856904"
           id="path1615" />
        <path
           inkscape:connector-curvature="0"
           d="m 315.51576,-135.99928 h -2.1409 q -0.35954,0 -0.58017,-0.16343 -0.22063,-0.1716 -0.33503,-0.43308 l -0.70273,-2.07553 h -4.52695 l -0.70274,2.07553 q -0.0899,0.2288 -0.32685,0.41674 -0.2288,0.17977 -0.572,0.17977 h -2.15724 l 4.60865,-11.9057 h 2.8273 z m -7.64841,-4.55146 h 3.25221 l -1.09497,-3.26038 q -0.12257,-0.31052 -0.26148,-0.72726 -0.13891,-0.42491 -0.27783,-0.91519 -0.13074,0.49845 -0.26965,0.92337 -0.13075,0.42491 -0.25332,0.73542 z"
           style="font-style:normal;font-variant:normal;font-weight:900;font-stretch:normal;font-family:Lato;-inkscape-font-specification:'Lato Heavy';fill:#000080;stroke-width:0.40856904"
           id="path1617" />
        <path
           inkscape:connector-curvature="0"
           d="m 319.21638,-140.40366 v 4.40438 h -2.76193 v -11.9057 h 3.87323 q 1.29108,0 2.19811,0.26965 0.91519,0.26148 1.48719,0.73542 0.58016,0.47395 0.84165,1.11948 0.26148,0.64554 0.26148,1.40548 0,0.58017 -0.15525,1.09497 -0.15526,0.51479 -0.46577,0.95605 -0.30234,0.43308 -0.75177,0.77628 -0.44125,0.3432 -1.02142,0.56382 0.27783,0.13892 0.5148,0.35137 0.23697,0.20429 0.42491,0.49029 l 2.53313,4.14289 h -2.50045 q -0.69456,0 -0.99691,-0.52297 l -1.97747,-3.4565 q -0.13891,-0.22062 -0.31051,-0.31868 -0.1716,-0.10623 -0.49029,-0.10623 z m 0,-1.90393 h 1.1113 q 0.56383,0 0.95606,-0.13891 0.40039,-0.14709 0.65371,-0.4004 0.25331,-0.25331 0.36771,-0.58834 0.1144,-0.3432 0.1144,-0.73542 0,-0.78446 -0.5148,-1.22571 -0.50663,-0.44126 -1.57708,-0.44126 h -1.1113 z"
           style="font-style:normal;font-variant:normal;font-weight:900;font-stretch:normal;font-family:Lato;-inkscape-font-specification:'Lato Heavy';fill:#000080;stroke-width:0.40856904"
           id="path1619" />
      </g>
    </clipPath>
    <filter
       inkscape:collect="always"
       style="color-interpolation-filters:sRGB"
       id="filter1667"
       x="-0.0076889899"
       width="1.015378"
       y="-0.027755832"
       height="1.0555117">
      <feGaussianBlur
         inkscape:collect="always"
         stdDeviation="0.25399998"
         id="feGaussianBlur1669" />
    </filter>
  </defs>
  <sodipodi:namedview
     id="base"
     pagecolor="#ffffff"
     bordercolor="#666666"
     borderopacity="1.0"
     inkscape:pageopacity="0.0"
     inkscape:pageshadow="2"
     inkscape:zoom="0.35"
     inkscape:cx="-189.87935"
     inkscape:cy="57.138381"
     inkscape:document-units="mm"
     inkscape:current-layer="layer1"
     showgrid="false"
     fit-margin-top="0"
     fit-margin-left="0"
     fit-margin-right="0"
     fit-margin-bottom="0"
     inkscape:window-width="1366"
     inkscape:window-height="692"
     inkscape:window-x="1366"
     inkscape:window-y="0"
     inkscape:window-maximized="1" />
  <metadata
     id="metadata1601">
    <rdf:RDF>
      <cc:Work
         rdf:about="">
        <dc:format>image/svg+xml</dc:format>
        <dc:type
           rdf:resource="http://purl.org/dc/dcmitype/StillImage" />
        <dc:title></dc:title>
      </cc:Work>
    </rdf:RDF>
  </metadata>
  <g
     inkscape:label="Layer 1"
     inkscape:groupmode="layer"
     id="layer1"
     transform="translate(-4.125817,-55.096425)">
    <g
       inkscape:export-ydpi="96"
       inkscape:export-xdpi="96"
       transform="translate(-1526.9268,279.53021)"
       id="g2294">
      <g
         id="g2155"
         transform="translate(0,-5.7449518)">
        <path
           inkscape:connector-curvature="0"
           style="fill:url(#linearGradient2296);fill-opacity:1;stroke:url(#linearGradient2296);stroke-width:0.94763708;stroke-linecap:butt;stroke-linejoin:round;stroke-miterlimit:4;stroke-dasharray:none;stroke-opacity:1"
           d="m 1644.74,-110.30788 36.1511,-39.70673 H 1572.437 l -36.1511,39.70673 z m 0,0 c 20.4451,0 36.1605,-20.44793 36.1605,-39.70673 z"
           id="path2131" />
        <g
           id="g2153">
          <path
             sodipodi:nodetypes="czzzc"
             inkscape:connector-curvature="0"
             id="path2133"
             d="m 1681.0618,-148.63273 c -4.3645,-2.90862 -14.3544,3.63941 -20.5448,3.26903 -6.1903,-0.37037 -8.4125,1.98799 -13.2883,-0.6575 -4.8759,-2.6455 -38.1161,2.85953 -41.7216,-1.05288 -3.6054,-3.91242 -27.5303,1.61535 -33.026,-2.50186"
             style="opacity:0.23999999;fill:none;stroke:#b21619;stroke-width:0.95292366px;stroke-linecap:butt;stroke-linejoin:miter;stroke-opacity:1" />
          <path
             sodipodi:nodetypes="czzc"
             inkscape:connector-curvature="0"
             id="path2135"
             d="m 1680.1626,-142.42828 c -1.8739,-1.93923 -59.1764,2.89612 -64.9022,-0.0834 -5.7258,-2.97947 -10.86,2.42098 -18.2103,-1.40383 -7.3504,-3.8248 -22.464,5.7928 -29.0859,-0.70193"
             style="opacity:0.25;fill:none;stroke:#b21619;stroke-width:0.97304833px;stroke-linecap:butt;stroke-linejoin:miter;stroke-opacity:1" />
          <path
             sodipodi:nodetypes="czzzzzzc"
             inkscape:connector-curvature="0"
             id="path2137"
             d="m 1679.2289,-138.6223 c -1.0258,-1.35755 -20.8005,-0.3108 -23.2736,0.94878 -2.4732,1.25962 -4.0564,0.86859 -5.847,0.86859 -1.7907,0 -4.3335,-1.12992 -6.8215,-0.49634 -2.4881,0.6336 -8.5753,1.80345 -11.6941,0.74451 -3.1187,-1.05896 -8.5555,-1.36492 -15.1048,-1.36492 -6.5492,0 -20.0705,1.55832 -28.1387,-0.49633 -8.0683,-2.05464 -23.588,3.021 -26.218,0.21182"
             style="opacity:0.25;fill:none;stroke:#b21619;stroke-width:0.98353958px;stroke-linecap:butt;stroke-linejoin:miter;stroke-opacity:1" />
          <path
             sodipodi:nodetypes="czzzzzzzc"
             inkscape:connector-curvature="0"
             id="path2139"
             d="m 1676.9516,-132.73902 c -1.6999,-2.1793 -18.3018,-1.41368 -24.1227,0.0289 -5.821,1.4425 -15.1236,1.18258 -19.2775,0.49632 -4.1538,-0.68626 -9.6919,-2.50542 -13.5192,-1.24083 -3.8272,1.2646 -15.5922,3.62819 -20.2789,2.85391 -4.6867,-0.77429 -3.4901,0.31387 -5.7581,-0.24814 -2.2681,-0.56204 -5.1025,-2.21154 -7.8862,-2.60574 -2.7838,-0.39422 -3.6917,0.71365 -8.0114,0 -4.3198,-0.71366 -17.124,0.22398 -18.6516,-1.73716"
             style="opacity:0.25;fill:none;stroke:#b21619;stroke-width:0.99703294px;stroke-linecap:butt;stroke-linejoin:miter;stroke-opacity:1" />
          <path
             sodipodi:nodetypes="czzzzzzzc"
             inkscape:connector-curvature="0"
             id="path2141"
             d="m 1555.2289,-130.68706 c 1.6611,2.14156 9.2468,3.17341 11.0209,2.31733 1.7741,-0.85607 4.0024,-3.72449 6.37,-2.58199 2.3677,1.14248 5.7486,-0.48434 8.2811,0.73771 2.5325,1.22204 21.0263,4.05495 23.0595,3.0738 2.0333,-0.98112 8.8666,-1.4571 11.8483,-0.73771 2.9817,0.7194 23.7876,1.06261 25.9897,0 2.2022,-1.06261 11.8546,0.93091 13.5045,1.72133 1.6499,0.79042 15.7586,-3.66041 18.4731,-0.86065"
             style="opacity:0.25;fill:none;stroke:#b21619;stroke-width:1.00125337px;stroke-linecap:butt;stroke-linejoin:miter;stroke-opacity:1" />
          <path
             sodipodi:nodetypes="czzzzc"
             inkscape:connector-curvature="0"
             id="path2143"
             d="m 1668.597,-120.56516 c -1.4085,-1.47595 -27.7765,4.64823 -32.3317,2.44516 -4.5553,-2.20307 -20.7964,-6.28949 -25.7613,-5.0889 -4.965,1.2006 -9.8563,3.0998 -12.8807,4.56246 -3.0243,1.46266 -24.7625,-1.79818 -27.2127,-2.98314 -2.4501,-1.18497 -20.5304,1.03936 -22.5087,-0.82601"
             style="opacity:0.25;fill:none;stroke:#b21619;stroke-width:1.00931752px;stroke-linecap:butt;stroke-linejoin:miter;stroke-opacity:1" />
          <path
             sodipodi:nodetypes="czzzzc"
             inkscape:connector-curvature="0"
             id="path2145"
             d="m 1543.1158,-117.32905 c 1.1801,1.61063 4.7444,1.83541 9.5905,2.36767 4.8462,0.53228 23.5834,-1.72802 28.5985,-0.35093 5.0152,1.37708 24.2229,1.18793 30.6755,0.17547 6.4527,-1.01247 19.8253,-0.0267 25.7227,1.05286 5.8973,1.07956 19.3495,-0.63117 20.6088,0.81174"
             style="opacity:0.25;fill:none;stroke:#b21619;stroke-width:0.94718099px;stroke-linecap:butt;stroke-linejoin:miter;stroke-opacity:1" />
          <path
             sodipodi:nodetypes="czzzzc"
             inkscape:connector-curvature="0"
             id="path2147"
             d="m 1650.6273,-110.71149 c -1.4429,-1.53194 -30.7653,-0.21384 -38.0079,-0.21384 -7.2426,0 -8.2339,0.95085 -13.2608,0 -5.0269,-0.95086 -13.4613,-2.10576 -18.8526,-2.10576 -5.3912,0 -11.9656,2.62459 -16.2963,2.10576 -4.3308,-0.51884 -24.6304,0.49691 -25.8825,-1.22835"
             style="opacity:0.25;fill:none;stroke:#b21619;stroke-width:0.94718099px;stroke-linecap:butt;stroke-linejoin:miter;stroke-opacity:1" />
          <text
             id="text2151"
             y="-119.45265"
             x="1675.0286"
             style="font-style:normal;font-variant:normal;font-weight:normal;font-stretch:normal;font-size:17.68071175px;line-height:1.25;font-family:'Infinite Stroke';-inkscape-font-specification:'Infinite Stroke, Normal';font-variant-ligatures:normal;font-variant-caps:normal;font-variant-numeric:normal;font-feature-settings:normal;text-align:start;letter-spacing:0px;word-spacing:0px;writing-mode:lr-tb;text-anchor:start;fill:#ffac55;fill-opacity:0.99215686;stroke:none;stroke-width:0.94718093"
             xml:space="preserve"
             transform="scale(0.95418401,1.0480159)"><tspan
               sodipodi:role="line"
               id="tspan2149"
               x="1675.0286"
               y="-119.45265"
               style="fill:#ffac55;fill-opacity:0.99215686;stroke-width:0.94718093">Estilo</tspan></text>
        </g>
      </g>
      <g
         id="g2179"
         transform="translate(0,1.5498933)">
        <path
           id="path2157"
           d="m 1572.4459,-225.50986 -36.1511,39.70674 h 108.4541 l 36.1511,-39.70674 z m 0,0 c -20.4451,0 -36.1605,20.44793 -36.1605,39.70674 z"
           style="fill:url(#linearGradient2300);fill-opacity:1;stroke:url(#linearGradient2300);stroke-width:0.94763708;stroke-linecap:butt;stroke-linejoin:round;stroke-miterlimit:4;stroke-dasharray:none;stroke-opacity:1"
           inkscape:connector-curvature="0" />
        <path
           sodipodi:nodetypes="czzzc"
           inkscape:connector-curvature="0"
           id="path2159"
           d="m 1536.1242,-187.18499 c 4.3644,2.90861 14.3544,-3.63942 20.5447,-3.26904 6.1903,0.37037 8.4125,-1.98799 13.2884,0.6575 4.8758,2.6455 38.116,-2.85953 41.7215,1.05288 3.6055,3.91242 27.5303,-1.61535 33.026,2.50186"
           style="opacity:0.23999999;fill:none;stroke:#b21619;stroke-width:0.95292366px;stroke-linecap:butt;stroke-linejoin:miter;stroke-opacity:1" />
        <path
           sodipodi:nodetypes="czzc"
           inkscape:connector-curvature="0"
           id="path2161"
           d="m 1537.0233,-193.38945 c 1.874,1.93923 59.1765,-2.89612 64.9022,0.0834 5.7258,2.97947 10.86,-2.42098 18.2104,1.40383 7.3503,3.8248 22.464,-5.7928 29.0858,0.70194"
           style="opacity:0.25;fill:none;stroke:#b21619;stroke-width:0.97304833px;stroke-linecap:butt;stroke-linejoin:miter;stroke-opacity:1" />
        <path
           sodipodi:nodetypes="czzzzzzc"
           inkscape:connector-curvature="0"
           id="path2163"
           d="m 1537.957,-197.19543 c 1.0258,1.35755 20.8005,0.3108 23.2737,-0.94878 2.4731,-1.25962 4.0563,-0.86859 5.847,-0.86859 1.7907,0 4.3335,1.12992 6.8215,0.49634 2.488,-0.6336 8.5752,-1.80344 11.694,-0.74451 3.1188,1.05896 8.5556,1.36492 15.1048,1.36492 6.5492,0 20.0705,-1.55832 28.1388,0.49633 8.0682,2.05464 23.5879,-3.021 26.218,-0.21182"
           style="opacity:0.25;fill:none;stroke:#b21619;stroke-width:0.98353958px;stroke-linecap:butt;stroke-linejoin:miter;stroke-opacity:1" />
        <path
           sodipodi:nodetypes="czzzzzzzc"
           inkscape:connector-curvature="0"
           id="path2165"
           d="m 1540.2344,-203.07871 c 1.6998,2.1793 18.3017,1.41368 24.1227,-0.0289 5.8209,-1.4425 15.1236,-1.18258 19.2774,-0.49632 4.1538,0.68626 9.6919,2.50542 13.5192,1.24083 3.8273,-1.2646 15.5922,-3.62819 20.2789,-2.85391 4.6867,0.77429 3.4901,-0.31387 5.7582,0.24814 2.268,0.56204 5.1024,2.21154 7.8862,2.60574 2.7837,0.39422 3.6916,-0.71365 8.0114,0 4.3197,0.71366 17.1239,-0.22398 18.6515,1.73717"
           style="opacity:0.25;fill:none;stroke:#b21619;stroke-width:0.99703294px;stroke-linecap:butt;stroke-linejoin:miter;stroke-opacity:1" />
        <path
           sodipodi:nodetypes="czzzzzzzc"
           inkscape:connector-curvature="0"
           id="path2167"
           d="m 1661.957,-205.13067 c -1.661,-2.14156 -9.2468,-3.17341 -11.0209,-2.31733 -1.7741,0.85607 -4.0024,3.72449 -6.37,2.58199 -2.3677,-1.14248 -5.7485,0.48434 -8.2811,-0.73771 -2.5325,-1.22204 -21.0262,-4.05494 -23.0595,-3.0738 -2.0333,0.98112 -8.8665,1.4571 -11.8482,0.73771 -2.9817,-0.7194 -23.7877,-1.06261 -25.9898,0 -2.2021,1.06261 -11.8545,-0.93091 -13.5045,-1.72133 -1.6499,-0.79042 -15.7585,3.66041 -18.4731,0.86066"
           style="opacity:0.25;fill:none;stroke:#b21619;stroke-width:1.00125337px;stroke-linecap:butt;stroke-linejoin:miter;stroke-opacity:1" />
        <path
           sodipodi:nodetypes="czzzzc"
           inkscape:connector-curvature="0"
           id="path2169"
           d="m 1548.589,-215.25257 c 1.4084,1.47595 27.7764,-4.64823 32.3316,-2.44516 4.5553,2.20307 20.7965,6.28949 25.7614,5.0889 4.9649,-1.2006 9.8563,-3.0998 12.8806,-4.56246 3.0244,-1.46266 24.7625,1.79818 27.2127,2.98314 2.4502,1.18497 20.5304,-1.03936 22.5087,0.82601"
           style="opacity:0.25;fill:none;stroke:#b21619;stroke-width:1.00931752px;stroke-linecap:butt;stroke-linejoin:miter;stroke-opacity:1" />
        <path
           sodipodi:nodetypes="czzzzc"
           inkscape:connector-curvature="0"
           id="path2171"
           d="m 1674.0702,-218.48868 c -1.1802,-1.61063 -4.7445,-1.83541 -9.5906,-2.36767 -4.8462,-0.53228 -23.5833,1.72803 -28.5985,0.35093 -5.0152,-1.37708 -24.2229,-1.18793 -30.6755,-0.17547 -6.4526,1.01247 -19.8253,0.0267 -25.7226,-1.05286 -5.8974,-1.07956 -19.3495,0.63117 -20.6089,-0.81174"
           style="opacity:0.25;fill:none;stroke:#b21619;stroke-width:0.94718099px;stroke-linecap:butt;stroke-linejoin:miter;stroke-opacity:1" />
        <path
           sodipodi:nodetypes="czzzzc"
           inkscape:connector-curvature="0"
           id="path2173"
           d="m 1566.5586,-225.10624 c 1.4429,1.53194 30.7654,0.21384 38.008,0.21384 7.2425,0 8.2338,-0.95085 13.2607,0 5.0269,0.95086 13.4614,2.10576 18.8526,2.10576 5.3913,0 11.9656,-2.62459 16.2964,-2.10576 4.3308,0.51884 24.6304,-0.49691 25.8824,1.22835"
           style="opacity:0.25;fill:none;stroke:#b21619;stroke-width:0.94718099px;stroke-linecap:butt;stroke-linejoin:miter;stroke-opacity:1" />
        <text
           transform="scale(0.954184,1.0480159)"
           xml:space="preserve"
           style="font-style:normal;font-variant:normal;font-weight:normal;font-stretch:normal;font-size:17.68071175px;line-height:1.25;font-family:'Infinite Stroke';-inkscape-font-specification:'Infinite Stroke, Normal';font-variant-ligatures:normal;font-variant-caps:normal;font-variant-numeric:normal;font-feature-settings:normal;text-align:start;letter-spacing:0px;word-spacing:0px;writing-mode:lr-tb;text-anchor:start;fill:#ffac55;fill-opacity:0.99215686;stroke:none;stroke-width:0.94718093"
           x="1656.3181"
           y="-191.35834"
           id="text2177"><tspan
             style="fill:#ffac55;fill-opacity:0.99215686;stroke-width:0.94718093"
             y="-191.35834"
             x="1656.3181"
             id="tspan2175"
             sodipodi:role="line">Arte</tspan></text>
      </g>
      <path
         inkscape:connector-curvature="0"
         id="path2181"
         d="m 1531.5125,-179.5687 v 29.63734 h 154.1517 v -29.63734 z"
         style="fill:#feab54;fill-opacity:1;stroke:#feab54;stroke-width:0.84500003;stroke-linecap:butt;stroke-linejoin:round;stroke-miterlimit:4;stroke-dasharray:none;stroke-opacity:1" />
      <path
         style="fill:#c18240;fill-opacity:1;stroke:#c18240;stroke-width:0.26540467;stroke-linecap:butt;stroke-linejoin:round;stroke-miterlimit:4;stroke-dasharray:none;stroke-opacity:1;paint-order:stroke fill markers"
         d="m 1531.1853,-179.57022 4.7906,-4.68148 h 145.1488 l 4.784,4.68148 z"
         id="path2183"
         inkscape:connector-curvature="0" />
      <g
         id="g2199"
         transform="matrix(1.4965862,0,0,0.83831369,1433.529,-44.793427)">
        <path
           sodipodi:nodetypes="cccc"
           inkscape:connector-curvature="0"
           id="path2185"
           d="m 65.47135,-158.26838 c 2.25232,-1.70534 7.70055,-3.47691 10.85201,-1.74622 3.78134,2.07658 23.87331,0.0593 24.78492,1.0606 4.59832,5.0505 58.83564,-1.81549 67.36534,-1.81549"
           style="fill:none;stroke:#7c1619;stroke-width:0.67467511px;stroke-linecap:butt;stroke-linejoin:miter;stroke-opacity:0.11764706" />
        <path
           sodipodi:nodetypes="cccsscc"
           inkscape:connector-curvature="0"
           id="path2187"
           d="m 65.47135,-154.00451 c 5.43976,-0.34321 15.84933,-5.21018 21.47413,-2.12121 2.07429,1.13914 7.99167,-0.0608 9.33458,1.41414 2.36055,2.59269 5.99695,3.94465 9.65647,4.94949 5.0872,1.39687 13.98446,-2.17376 18.66914,-3.88888 6.3217,-2.31445 16.22758,4.16912 21.88801,1.0606 5.78295,-3.17582 16.10027,-2.66191 21.7805,-1.41414"
           style="fill:none;stroke:#7c1619;stroke-width:0.67467511px;stroke-linecap:butt;stroke-linejoin:miter;stroke-opacity:0.11764706" />
        <path
           sodipodi:nodetypes="ccsc"
           inkscape:connector-curvature="0"
           id="path2189"
           d="m 65.47135,-148.47294 c 6.80803,2.29632 17.31066,-4.81297 23.7273,-1.28915 6.24634,3.43029 61.50616,3.87423 67.91712,0.35354 2.66223,-1.46201 8.12985,1.76767 11.26588,1.76767"
           style="fill:none;stroke:#7c1619;stroke-width:0.67467511px;stroke-linecap:butt;stroke-linejoin:miter;stroke-opacity:0.11764706" />
        <path
           sodipodi:nodetypes="cccc"
           inkscape:connector-curvature="0"
           id="path2191"
           d="m 65.47135,-140.21664 c 11.64306,-12.94535 53.22465,4.12925 62.67503,-1.0606 3.07245,-1.68729 17.01083,-4.7996 20.60047,-2.82828 5.50166,3.02133 13.53328,5.28213 19.52733,1.99038"
           style="fill:none;stroke:#7c1619;stroke-width:0.67467511px;stroke-linecap:butt;stroke-linejoin:miter;stroke-opacity:0.11764706" />
        <path
           sodipodi:nodetypes="ccc"
           inkscape:connector-curvature="0"
           id="path2193"
           d="m 65.47135,-133.85301 c 15.26742,-8.42424 73.61088,4.60491 81.02233,-3.53535 1.61559,-1.77446 16.03166,1.61637 21.7805,0.35354"
           style="fill:none;stroke:#7c1619;stroke-width:0.67467511px;stroke-linecap:butt;stroke-linejoin:miter;stroke-opacity:0.11764706" />
        <path
           sodipodi:nodetypes="ccsscc"
           inkscape:connector-curvature="0"
           id="path2195"
           d="m 65.47135,-129.38204 c 3.3126,-1.70541 10.47037,-2.63764 12.7833,-5.17804 1.2514,-1.37444 7.40911,0.70707 9.01271,0.70707 4.92844,0 45.52554,1.66788 46.35102,2.12121 5.44626,2.99092 13.26613,2.61364 18.66917,-0.35353 4.22734,-2.32153 11.30255,1.38248 15.98663,0.35353"
           style="fill:none;stroke:#7c1619;stroke-width:0.67467511px;stroke-linecap:butt;stroke-linejoin:miter;stroke-opacity:0.11764706" />
        <path
           sodipodi:nodetypes="ccc"
           inkscape:connector-curvature="0"
           id="path2197"
           d="m 65.47135,-125.41598 c 6.80589,-6.77085 83.78173,-3.28505 86.49433,-0.30572 0.0788,0.0866 12.12786,-3.41454 16.3085,-2.49619"
           style="fill:none;stroke:#7c1619;stroke-width:0.67467511px;stroke-linecap:butt;stroke-linejoin:miter;stroke-opacity:0.11764706" />
      </g>
      <g
         id="g2285"
         transform="matrix(1.5609463,0,0,1.5609463,1426.0302,58.645524)">
        <g
           id="g2249"
           clip-path="url(#clipPath1785)"
           transform="translate(-309.75223,-2.4578534)">
          <circle
             style="opacity:1;fill:url(#radialGradient2304);fill-opacity:1;stroke:#580f11;stroke-width:2;stroke-linecap:butt;stroke-linejoin:miter;stroke-miterlimit:4;stroke-dasharray:none;stroke-opacity:1;paint-order:normal"
             id="circle2201"
             cx="426.62506"
             cy="-141.08078"
             r="51.442398" />
          <path
             style="fill:none;stroke:#580f11;stroke-width:0.26458332px;stroke-linecap:butt;stroke-linejoin:miter;stroke-opacity:0.2"
             d="m 414.96265,-90.647723 c 8.12562,-3.12371 18.95044,-2.245063 28.81167,-2.245063"
             id="path2203"
             inkscape:connector-curvature="0" />
          <path
             style="fill:none;stroke:#580f11;stroke-width:0.26458332px;stroke-linecap:butt;stroke-linejoin:miter;stroke-opacity:0.2"
             d="m 408.97582,-93.266963 c 2.891,-6.104747 7.47535,-0.182991 10.1028,-1.496708 8.54199,-4.271002 18.38256,-2.993419 27.31495,-2.993419 1.86179,0 5.51063,1.700742 6.361,0"
             id="path2205"
             inkscape:connector-curvature="0" />
          <path
             style="fill:none;stroke:#580f11;stroke-width:0.26458332px;stroke-linecap:butt;stroke-linejoin:miter;stroke-opacity:0.2"
             d="m 399.99557,-97.75709 c 2.47563,-2.37716 5.87968,-3.5011 8.60608,-4.86431 2.80828,-1.40413 21.20857,0.45906 24.32153,1.49671 0.77499,0.25834 12.56117,0.6417 13.09621,0.37418 1.10861,-0.55431 1.6877,-1.68772 2.24507,-2.24506 0.94369,-0.94371 3.96346,0.59586 4.11594,0.74835 1.77099,1.77099 6.33325,-0.37418 7.48355,-0.37418"
             id="path2207"
             inkscape:connector-curvature="0" />
          <path
             style="fill:none;stroke:#580f11;stroke-width:0.26458332px;stroke-linecap:butt;stroke-linejoin:miter;stroke-opacity:0.2"
             d="m 463.23154,-104.49228 c -4.54728,-3.02074 -19.75011,0.27655 -22.82481,-0.74836 -2.44125,-0.81375 -5.91084,-3.96686 -9.35445,-2.24506 -1.48333,0.74167 -8.40454,1.59747 -10.10277,0.74835 -2.10314,-1.05156 -6.17754,-2.92985 -9.35445,-1.87088 -2.81151,0.93717 -3.59349,2.5451 -5.98683,3.74177 -4.19245,2.09623 -9.83312,2.61924 -15.34127,2.61924"
             id="path2209"
             inkscape:connector-curvature="0" />
          <path
             style="fill:none;stroke:#580f11;stroke-width:0.26458332px;stroke-linecap:butt;stroke-linejoin:miter;stroke-opacity:0.2"
             d="m 388.77025,-105.61482 c 2.99216,-6.52628 11.09512,-1.6187 16.08963,-4.11595 6.14051,-3.07025 23.8931,-5.63978 30.68254,-2.24506 4.96443,2.48222 10.86668,-2.42827 16.08963,-1.12253 3.84691,0.96173 15.68487,2.07326 17.58633,1.12253"
             id="path2211"
             inkscape:connector-curvature="0" />
          <path
             style="fill:none;stroke:#580f11;stroke-width:0.26458332px;stroke-linecap:butt;stroke-linejoin:miter;stroke-opacity:0.2"
             d="m 472.21179,-117.21431 c -3.24792,0.0758 -6.52102,-0.0268 -9.72859,0.37418 -3.17942,0.39742 -15.0422,2.95586 -17.96053,1.4967 -2.71915,-1.35958 -6.73497,0.1872 -9.35442,-1.12253 -1.58028,-0.79014 -4.3634,-3.80514 -6.73521,-2.61924 -3.91755,1.95878 -5.43245,2.99342 -10.85114,2.99342 -4.63114,0 -12.09749,-1.45543 -16.46381,0 -3.48814,1.16272 -3.90488,3.15654 -5.98682,5.23848 -2.47374,2.47374 -9.33148,0 -11.22532,0"
             id="path2227"
             inkscape:connector-curvature="0" />
          <path
             style="fill:none;stroke:#580f11;stroke-width:0.26458332px;stroke-linecap:butt;stroke-linejoin:miter;stroke-opacity:0.2"
             d="m 381.66088,-115.34343 c 3.94501,-5.32617 9.96917,-0.95326 14.9671,-2.61924 3.23691,-1.07897 5.42497,-2.89957 7.85773,-4.11595 2.08978,-1.0449 4.74337,-0.25326 6.36101,-1.87088 0.0521,-0.0522 6.72787,1.12253 9.35442,1.12253 7.03403,0 20.88258,-1.94225 25.44408,2.61924 1.47566,1.47567 8.25241,-0.9457 9.35442,-1.49671 1.29715,-0.64857 3.56717,0.64857 4.86431,0 4.69006,-2.34504 11.51263,0.74836 14.96709,0.74836"
             id="path2229"
             inkscape:connector-curvature="0" />
          <path
             style="fill:none;stroke:#580f11;stroke-width:0.26458332px;stroke-linecap:butt;stroke-linejoin:miter;stroke-opacity:0.2"
             d="m 476.70193,-127.3171 c -8.06574,3.06168 -20.19485,-2.62192 -27.68912,-0.74835 -2.15384,0.53845 -7.32388,1.33704 -8.98025,2.99341 -0.39725,0.39724 -2.95884,-1.12253 -3.74179,-1.12253 -2.78223,0 -6.98527,0.43622 -9.35442,-0.74835 -1.26122,-0.6306 -6.58911,0.52028 -7.10938,0 -0.95997,-0.95998 -1.9363,-2.31048 -2.61925,-2.99342 -0.65381,-0.65381 -8.12371,0.26599 -8.60607,0.74835 -3.9374,3.9374 -25.22945,10.58427 -31.4309,7.48355"
             id="path2231"
             inkscape:connector-curvature="0" />
          <path
             style="fill:none;stroke:#580f11;stroke-width:0.26458332px;stroke-linecap:butt;stroke-linejoin:miter;stroke-opacity:0.2"
             d="m 376.4224,-127.69128 c 2.08982,-0.79848 4.70578,1.38888 6.73519,0.37418 3.3111,-1.65555 7.11558,-4.30614 10.47697,-5.98684 1.86397,-0.93198 4.57126,0.82162 6.36101,0.37418 3.70634,-0.92658 7.33031,-1.87089 11.22532,-1.87089 1.29106,0 3.46366,-2.00993 4.49014,-1.49671 1.48333,0.74167 3.20741,1.7908 4.86428,2.61925 0.15552,0.0778 2.3535,-0.24131 2.61925,-0.37418 3.72358,-1.86179 7.19042,1.22024 10.85114,0 1.60443,-0.5348 2.78172,-1.01669 4.49014,-1.87089 1.0932,-0.54661 25.34465,2.89402 25.44405,2.99342 1.46005,1.46005 8.39084,-2.51162 9.35445,-2.99342 1.49077,-0.74539 4.34575,1.42453 5.23846,1.87089"
             id="path2233"
             inkscape:connector-curvature="0" />
          <path
             style="fill:none;stroke:#580f11;stroke-width:0.26458332px;stroke-linecap:butt;stroke-linejoin:miter;stroke-opacity:0.2"
             d="m 477.82445,-141.16166 c -2.81625,1.39778 -6.53341,-0.19199 -9.35442,0.74835 -3.83545,1.27849 -10.08962,1.49671 -14.21874,1.49671 -0.48416,0 -2.03985,0.95359 -2.61924,0.37418 -2.32106,-2.32106 -11.88836,-5.28114 -14.96711,-3.74177 -1.13207,0.56603 -16.25068,1.79035 -16.83797,1.49671 -2.07516,-1.03759 -7.24506,-5.17064 -10.10278,-3.74178 -6.6984,3.3492 -28.17536,12.66601 -35.54685,8.98026"
             id="path2235"
             inkscape:connector-curvature="0" />
          <path
             style="fill:none;stroke:#580f11;stroke-width:0.26458332px;stroke-linecap:butt;stroke-linejoin:miter;stroke-opacity:0.2"
             d="m 375.29987,-141.91002 c 3.4558,-0.62949 13.09283,2.24675 16.83798,0.37418 4.02418,-2.01209 8.50233,-4.25117 11.97369,-5.98684 2.34389,-1.17195 5.89915,-0.14325 8.60607,-1.49671 1.04939,-0.52469 4.49617,0.003 5.23849,0.37418 0.72202,0.36101 23.85425,1.35617 24.3215,1.12253 2.08812,-1.04405 4.78486,-1.0828 7.10938,-2.24506 1.89413,-0.94707 5.04823,-0.5581 6.36101,-1.87089 0.97279,-0.97278 19.09149,0.55705 20.95394,-0.37417"
             id="path2237"
             inkscape:connector-curvature="0"
             sodipodi:nodetypes="ccccccccc" />
          <path
             style="fill:none;stroke:#580f11;stroke-width:0.26458332px;stroke-linecap:butt;stroke-linejoin:miter;stroke-opacity:0.2"
             d="m 375.67405,-150.14192 c 5.79369,-1.65534 -0.0572,-0.2431 4.49012,-0.74835 3.07304,-0.34145 9.222,-1.36427 10.85115,-2.99342 1.74002,-1.74003 26.06011,2.75153 30.68254,-1.87089 0.85503,-0.85503 4.0618,-0.16002 5.23849,-0.74835 3.2935,-1.64676 9.53373,0.43914 13.09621,-0.74836 5.99789,-1.99929 13.77423,1.34479 19.45722,-1.49671 4.67664,-2.33832 12.29556,2.27121 16.0896,0.37418"
             id="path2239"
             inkscape:connector-curvature="0" />
          <path
             style="fill:none;stroke:#580f11;stroke-width:0.26458332px;stroke-linecap:butt;stroke-linejoin:miter;stroke-opacity:0.2"
             d="m 469.59255,-165.85737 c -5.94646,-3.85206 -20.495,3.02167 -25.06988,1.49671 -2.75074,-0.91691 -4.42783,-5.02024 -7.10935,-6.36101 -3.2116,-1.60579 -17.73074,1.64109 -19.83142,3.74177 -1.04164,1.04165 -3.05478,4.52081 -4.49011,5.23849 -3.16077,1.58038 -7.89311,1.14021 -11.5995,2.99341 -2.98605,1.49302 -15.42372,-2.64672 -18.70887,-3.74177 -0.67771,-0.2259 -2.15483,0.74836 -4.11596,0.74836"
             id="path2241"
             inkscape:connector-curvature="0" />
          <path
             style="fill:none;stroke:#580f11;stroke-width:0.26458332px;stroke-linecap:butt;stroke-linejoin:miter;stroke-opacity:0.2"
             d="m 382.03506,-167.35408 c 7.09362,-2.59347 23.07832,-3.24691 28.06331,-8.2319 0.6446,-0.64461 8.00124,-0.11533 8.98025,0.37418 4.87058,2.4353 38.57059,-1.49671 43.77875,-1.49671"
             id="path2243"
             inkscape:connector-curvature="0" />
          <path
             style="fill:none;stroke:#580f11;stroke-width:0.26458332px;stroke-linecap:butt;stroke-linejoin:miter;stroke-opacity:0.2"
             d="m 458.36723,-181.19864 c -6.81138,0.99511 -30.25063,-3.79949 -34.4243,0.37418 -0.78872,0.78871 -5.13675,-0.0339 -6.36103,0.37418 -4.10335,1.36778 -9.99279,-0.70432 -14.21874,0 -4.21468,0.70245 -10.02043,1.87089 -13.0962,1.87089"
             id="path2245"
             inkscape:connector-curvature="0" />
          <path
             style="fill:none;stroke:#580f11;stroke-width:0.26458332px;stroke-linecap:butt;stroke-linejoin:miter;stroke-opacity:0.2"
             d="m 397.37633,-184.56623 c 4.82769,-0.75119 10.23067,1.93246 14.96708,0.74835 2.83641,-0.7091 6.71052,-2.22036 8.6061,-4.11595 1.59756,-1.59756 20.40901,0.83373 24.32151,-1.12253"
             id="path2247"
             inkscape:connector-curvature="0" />
        </g>
        <g
           id="g2253"
           style="font-style:normal;font-variant:normal;font-weight:900;font-stretch:normal;font-size:16.34276199px;line-height:1.25;font-family:Lato;-inkscape-font-specification:'Lato Heavy';letter-spacing:0px;word-spacing:0px;fill:#000003;fill-opacity:1;stroke:none;stroke-width:0.40856904;filter:url(#filter1667)"
           transform="matrix(1.0061763,0,0,0.99386162,-174.70644,-2.4578745)"
           aria-label="SALAZAR"
           clip-path="url(#clipPath1605)">
          <path
             style="opacity:1;fill:#000003;fill-opacity:1;stroke:none;stroke-width:2;stroke-linecap:butt;stroke-linejoin:round;stroke-miterlimit:4;stroke-dasharray:none;stroke-opacity:0.2;paint-order:stroke markers fill"
             d="m 249.73319,-152.28066 c -0.0295,0 -0.0534,0.0241 -0.0534,0.0536 v 21.85635 c 0,0.0295 0.0239,0.053 0.0534,0.053 h 79.17539 c 0.0295,0 0.0534,-0.0235 0.0534,-0.053 v -21.85635 c 0,-0.0295 -0.0239,-0.0536 -0.0534,-0.0536 z m 8.13017,4.91046 c 0.36498,0 0.71891,0.03 1.06211,0.09 0.34864,0.0545 0.67815,0.13881 0.98866,0.25322 0.31051,0.10895 0.5995,0.24238 0.86643,0.40036 0.27238,0.15254 0.51479,0.32697 0.72725,0.52308 l -0.68667,1.28273 c -0.0817,0.13075 -0.16882,0.22893 -0.26142,0.29429 -0.0872,0.0654 -0.20145,0.0983 -0.34308,0.0983 -0.1253,0 -0.26122,-0.0381 -0.40831,-0.11439 -0.14164,-0.0817 -0.30526,-0.17181 -0.49048,-0.26986 -0.17977,-0.0981 -0.38668,-0.18527 -0.62093,-0.26154 -0.23425,-0.0817 -0.50107,-0.12271 -0.80069,-0.12271 -0.51752,0 -0.90469,0.11202 -1.16072,0.33537 -0.25059,0.2179 -0.37544,0.51479 -0.37544,0.89069 0,0.23969 0.076,0.43841 0.22855,0.59639 0.15253,0.15798 0.35114,0.29428 0.59628,0.40868 0.2506,0.1144 0.53404,0.22068 0.85,0.31874 0.32141,0.0926 0.64815,0.19888 0.98044,0.31873 0.33231,0.11439 0.65679,0.25019 0.97275,0.40816 0.32141,0.15798 0.60434,0.35957 0.84948,0.60471 0.25059,0.24514 0.45248,0.54492 0.60501,0.89901 0.15254,0.34864 0.22855,0.77088 0.22855,1.26661 0,0.55021 -0.0954,1.06488 -0.28607,1.54427 -0.19066,0.47939 -0.46857,0.89875 -0.83356,1.25829 -0.35954,0.3541 -0.8061,0.63481 -1.33996,0.84181 -0.52842,0.20156 -1.13029,0.30262 -1.80579,0.30262 -0.37044,0 -0.74929,-0.0387 -1.13607,-0.11491 -0.38133,-0.0763 -0.75136,-0.18203 -1.1109,-0.31822 -0.35954,-0.14164 -0.69736,-0.30797 -1.01332,-0.49864 -0.31596,-0.19066 -0.59109,-0.40321 -0.82534,-0.63746 l 0.81713,-1.29105 c 0.0654,-0.0926 0.14972,-0.16886 0.2532,-0.22878 0.10895,-0.0654 0.226,-0.0983 0.35129,-0.0983 0.16343,0 0.32706,0.052 0.49048,0.15546 0.16888,0.1035 0.35692,0.21788 0.56393,0.34317 0.21245,0.1253 0.45486,0.23966 0.72725,0.34318 0.27238,0.1035 0.59357,0.15546 0.96401,0.15546 0.50117,0 0.89059,-0.10914 1.16842,-0.32705 0.27783,-0.22335 0.41704,-0.57457 0.41704,-1.05395 0,-0.27783 -0.0765,-0.50422 -0.22906,-0.67854 -0.15254,-0.17432 -0.35391,-0.31873 -0.6045,-0.43313 -0.24514,-0.1144 -0.52582,-0.21493 -0.84178,-0.30209 -0.31596,-0.0872 -0.63993,-0.18248 -0.97223,-0.28598 -0.33231,-0.10895 -0.65677,-0.23951 -0.97275,-0.39204 -0.31595,-0.15799 -0.59889,-0.36245 -0.84947,-0.61303 -0.24515,-0.25604 -0.44425,-0.572 -0.5968,-0.94788 -0.15253,-0.38134 -0.22855,-0.84979 -0.22855,-1.40544 0,-0.4467 0.0899,-0.88278 0.26964,-1.30769 0.17977,-0.42492 0.44382,-0.80327 0.79247,-1.13559 0.34865,-0.3323 0.77633,-0.59682 1.28295,-0.79293 0.50662,-0.20156 1.08686,-0.3021 1.74057,-0.3021 z m 8.43371,0.13052 h 2.82731 l 4.60899,11.90595 h -2.14117 c -0.23969,0 -0.43275,-0.0543 -0.57985,-0.16327 -0.14708,-0.1144 -0.25912,-0.2588 -0.33538,-0.43312 l -0.7026,-2.07567 h -4.52679 l -0.7031,2.07567 c -0.06,0.15253 -0.16869,0.29119 -0.32665,0.41648 -0.15254,0.11985 -0.34335,0.17991 -0.57215,0.17991 h -2.15709 z m 8.37462,0 h 2.76209 v 9.69977 h 4.4128 v 2.20618 h -7.17489 z m 11.83058,0 h 2.82734 l 4.60847,11.90595 h -2.14065 c -0.23971,0 -0.43328,-0.0543 -0.58038,-0.16327 -0.14707,-0.1144 -0.25859,-0.2588 -0.33485,-0.43312 l -0.7026,-2.07567 h -4.52731 l -0.70258,2.07567 c -0.0599,0.15253 -0.16869,0.29119 -0.32665,0.41648 -0.15254,0.11985 -0.34334,0.17991 -0.57214,0.17991 h -2.15708 z m 7.90882,0 h 8.90672 v 0.99727 c 0,0.14164 -0.0244,0.2803 -0.0735,0.41648 -0.0436,0.1362 -0.10629,0.26441 -0.18796,0.38425 l -5.58891,7.98341 h 5.67056 v 2.12454 h -9.18456 v -1.06227 c 0,-0.1253 0.0221,-0.24777 0.0657,-0.36761 0.0436,-0.1253 0.1035,-0.23967 0.17976,-0.34317 l 5.60534,-8.00836 H 294.411 Z m 13.66875,0 h 2.82731 l 4.60847,11.90595 h -2.14065 c -0.23969,0 -0.43328,-0.0543 -0.58035,-0.16327 -0.1471,-0.1144 -0.25859,-0.2588 -0.33488,-0.43312 l -0.70257,-2.07567 h -4.52732 l -0.7026,2.07567 c -0.0599,0.15253 -0.16869,0.29119 -0.32665,0.41648 -0.15254,0.11985 -0.34334,0.17991 -0.57214,0.17991 h -2.15709 z m 8.37462,0 h 3.87302 c 0.86072,0 1.59348,0.0901 2.19816,0.26985 0.61014,0.17432 1.10603,0.41926 1.48737,0.73522 0.38676,0.31597 0.66745,0.68911 0.84179,1.11947 0.17431,0.43036 0.26141,0.89933 0.26141,1.40596 0,0.38678 -0.0516,0.7513 -0.1551,1.0945 -0.10352,0.3432 -0.25883,0.66203 -0.46583,0.9562 -0.20156,0.28872 -0.45229,0.5475 -0.75191,0.7763 -0.29417,0.2288 -0.63475,0.41707 -1.02154,0.56415 0.18523,0.0926 0.35665,0.20934 0.51464,0.35097 0.15796,0.13619 0.29996,0.29965 0.42526,0.49032 l 2.53303,4.14301 h -2.50069 c -0.46305,0 -0.79532,-0.17443 -0.99688,-0.52308 l -1.97735,-3.45615 c -0.0926,-0.14708 -0.1958,-0.25335 -0.31018,-0.31873 -0.11442,-0.0708 -0.27803,-0.10659 -0.4905,-0.10659 h -0.70258 v 4.40455 h -2.76212 z m 2.76212,2.06734 v 3.5305 h 1.1109 c 0.37588,0 0.69482,-0.0467 0.95631,-0.13935 0.26693,-0.0981 0.48492,-0.23149 0.65379,-0.40036 0.16887,-0.16888 0.29146,-0.36472 0.36772,-0.58807 0.0763,-0.2288 0.11402,-0.47426 0.11402,-0.73574 0,-0.52298 -0.17139,-0.93137 -0.51461,-1.22554 -0.33774,-0.29417 -0.86361,-0.44144 -1.57723,-0.44144 z m -51.51381,0.38425 c -0.0872,0.3323 -0.17705,0.64016 -0.26964,0.92344 -0.0872,0.28327 -0.1715,0.52821 -0.2532,0.73522 l -1.09499,3.244 h 3.25207 l -1.09499,-3.26012 c -0.0817,-0.20702 -0.1688,-0.44959 -0.26141,-0.72742 -0.0926,-0.28327 -0.18523,-0.58827 -0.27784,-0.91512 z m 20.20471,0 c -0.0872,0.3323 -0.17703,0.64016 -0.26964,0.92344 -0.0872,0.28327 -0.17148,0.52821 -0.25321,0.73522 l -1.09496,3.244 h 3.25257 l -1.09499,-3.26012 c -0.0817,-0.20702 -0.16932,-0.44959 -0.26193,-0.72742 -0.0926,-0.28327 -0.18523,-0.58827 -0.27784,-0.91512 z m 21.57754,0 c -0.0872,0.3323 -0.177,0.64016 -0.26964,0.92344 -0.0872,0.28327 -0.17148,0.52821 -0.25318,0.73522 l -1.09499,3.244 h 3.25257 l -1.09496,-3.26012 c -0.0817,-0.20702 -0.16932,-0.44959 -0.26194,-0.72742 -0.0926,-0.28327 -0.18525,-0.58827 -0.27786,-0.91512 z"
             id="path2251"
             inkscape:connector-curvature="0" />
        </g>
        <g
           transform="translate(-174.6742,-2.4578534)"
           id="g2269"
           style="fill:#ffffff;fill-opacity:0.2">
          <path
             id="path2255"
             transform="scale(0.26458333)"
             d="m 993.23047,-549.22852 -1.48242,2.73438 c -0.31073,0.49111 -0.64197,0.85992 -0.99414,1.10547 -0.33149,0.24567 -0.76608,0.36719 -1.30469,0.36719 -0.47647,0 -0.99534,-0.1432 -1.55469,-0.42969 -0.53866,-0.30692 -1.15895,-0.64339 -1.86328,-1.01172 -0.68367,-0.36835 -1.47247,-0.69593 -2.36328,-0.98242 -0.89081,-0.30693 -1.90552,-0.46094 -3.04492,-0.46094 -1.96808,0 -3.43846,0.42079 -4.41211,1.25977 -0.95295,0.81849 -1.42969,1.93374 -1.42969,3.3457 0,0.49495 0.0962,0.93765 0.27148,1.33984 0.23377,-0.65708 0.61648,-1.22025 1.15821,-1.68554 0.97365,-0.83898 2.44403,-1.25977 4.41211,-1.25977 1.1394,0 2.15411,0.15401 3.04492,0.46094 0.89081,0.28649 1.67961,0.61407 2.36328,0.98242 0.70433,0.36833 1.32462,0.7048 1.86328,1.01172 0.55935,0.28649 1.07822,0.42969 1.55469,0.42969 0.53861,0 0.9732,-0.12152 1.30469,-0.36719 0.35217,-0.24555 0.68341,-0.61436 0.99414,-1.10547 l 2.61133,-4.81836 c -0.35273,-0.3216 -0.73275,-0.62561 -1.12891,-0.91602 z m -28.19336,8.12696 c -0.0477,0.4377 -0.0762,0.87884 -0.0762,1.32226 0,2.08721 0.29103,3.84688 0.87109,5.2793 0.58008,1.41193 1.33535,2.59878 2.26758,3.56055 0.95294,0.9413 2.03086,1.70737 3.23242,2.30078 1.20154,0.57297 2.43354,1.06536 3.69727,1.47461 1.26369,0.38878 2.49765,0.74678 3.69922,1.07422 1.20153,0.3274 2.26696,0.70505 3.19921,1.13476 0.95297,0.42973 1.72073,0.97216 2.30079,1.62696 0.31237,0.35266 0.53358,0.76699 0.67773,1.23242 0.12514,-0.50583 0.19141,-1.06385 0.19141,-1.6836 0,-1.0436 -0.28911,-1.89398 -0.86914,-2.54882 -0.58006,-0.6548 -1.34782,-1.19723 -2.30079,-1.62696 -0.93225,-0.42971 -1.99768,-0.80736 -3.19921,-1.13476 -1.20157,-0.32744 -2.43553,-0.68544 -3.69922,-1.07422 -1.26373,-0.40925 -2.49573,-0.90164 -3.69727,-1.47461 -1.20156,-0.59341 -2.27948,-1.35948 -3.23242,-2.30078 -0.93223,-0.96177 -1.6875,-2.14862 -2.26758,-3.56055 -0.41678,-1.02921 -0.6776,-2.23431 -0.79492,-3.60156 z m 29.87305,17.44726 c -0.13667,1.4958 -0.47523,2.91671 -1.01758,4.26368 -0.72507,1.80071 -1.7819,3.37598 -3.16992,4.72656 -1.36729,1.33009 -3.0655,2.38451 -5.09571,3.16211 -2.0095,0.75711 -4.29834,1.13476 -6.86718,1.13476 -1.40871,0 -2.84943,-0.1432 -4.32032,-0.42969 -1.45015,-0.28646 -2.85928,-0.68569 -4.22656,-1.19726 -1.36728,-0.53206 -2.65195,-1.1549 -3.85351,-1.87109 -0.68862,-0.41045 -1.31971,-0.85219 -1.90626,-1.31641 l -1.23242,1.92187 c 0.89081,0.87993 1.93711,1.67834 3.13868,2.39454 1.20156,0.71619 2.48623,1.33903 3.85351,1.87109 1.36728,0.51157 2.77641,0.9108 4.22656,1.19726 1.47089,0.28649 2.91161,0.42969 4.32032,0.42969 2.56884,0 4.85768,-0.37765 6.86718,-1.13476 2.03021,-0.7776 3.72842,-1.83202 5.09571,-3.16211 1.38802,-1.35058 2.44485,-2.92585 3.16992,-4.72656 0.72506,-1.80075 1.08789,-3.73404 1.08789,-5.80079 0,-0.50952 -0.0269,-0.99473 -0.0703,-1.46289 z"
             style="font-style:normal;font-variant:normal;font-weight:900;font-stretch:normal;font-size:medium;line-height:1.25;font-family:Lato;-inkscape-font-specification:'Lato Heavy';letter-spacing:0px;word-spacing:0px;fill:#ffffff;fill-opacity:0.2;stroke:none;stroke-width:1.54419792"
             inkscape:connector-curvature="0" />
          <path
             id="path2257"
             transform="scale(0.26458333)"
             d="m 1017.918,-546.37109 c -0.3315,1.24822 -0.6732,2.40466 -1.0254,3.46875 -0.3315,1.06406 -0.6541,1.98411 -0.9649,2.76172 l -4.164,12.18554 h 1.0254 l 3.1386,-9.18554 c 0.3108,-0.77761 0.6334,-1.69766 0.9649,-2.76172 0.3522,-1.06409 0.6939,-2.22053 1.0254,-3.46875 0.3521,1.22776 0.7025,2.37343 1.0547,3.4375 0.3521,1.0436 0.6853,1.95479 0.9961,2.73242 l 3.1445,9.24609 h 1.0195 l -4.164,-12.24609 c -0.3108,-0.77763 -0.644,-1.68882 -0.9961,-2.73242 -0.3522,-1.06407 -0.7026,-2.20974 -1.0547,-3.4375 z m -8.5782,25.47656 -2.6718,7.79687 c -0.2281,0.57295 -0.6416,1.0938 -1.2422,1.56446 -0.5801,0.45016 -1.3057,0.67578 -2.1758,0.67578 h -7.02734 l -1.17578,3 h 8.20312 c 0.8701,0 1.5957,-0.22562 2.1758,-0.67578 0.6006,-0.47066 1.0141,-0.99151 1.2422,-1.56446 l 2.6718,-7.79687 h 17.2168 l 2.6719,7.79687 c 0.29,0.65479 0.7141,1.19527 1.2735,1.625 0.5593,0.40925 1.2955,0.61524 2.207,0.61524 h 8.1406 l -1.1758,-3 h -6.9648 c -0.9115,0 -1.6477,-0.20599 -2.207,-0.61524 -0.5594,-0.42973 -0.9835,-0.97021 -1.2735,-1.625 l -2.6719,-7.79687 z"
             style="font-style:normal;font-variant:normal;font-weight:900;font-stretch:normal;font-size:medium;line-height:1.25;font-family:Lato;-inkscape-font-specification:'Lato Heavy';letter-spacing:0px;word-spacing:0px;fill:#ffffff;fill-opacity:0.2;stroke:none;stroke-width:1.54419792"
             inkscape:connector-curvature="0" />
          <path
             id="path2259"
             transform="scale(0.26458333)"
             d="m 1044.4199,-510.85742 v 3 h 27.2832 v -3 z"
             style="font-style:normal;font-variant:normal;font-weight:900;font-stretch:normal;font-size:medium;line-height:1.25;font-family:Lato;-inkscape-font-specification:'Lato Heavy';letter-spacing:0px;word-spacing:0px;fill:#ffffff;fill-opacity:0.2;stroke:none;stroke-width:1.54419792"
             inkscape:connector-curvature="0" />
          <path
             id="path2261"
             transform="scale(0.26458333)"
             d="m 1094.7539,-546.37109 c -0.3315,1.24822 -0.6732,2.40466 -1.0254,3.46875 -0.3314,1.06406 -0.6521,1.98411 -0.9629,2.76172 l -4.164,12.18554 h 1.0254 l 3.1386,-9.18554 c 0.3108,-0.77761 0.6315,-1.69766 0.9629,-2.76172 0.3522,-1.06409 0.6939,-2.22053 1.0254,-3.46875 0.3522,1.22776 0.7045,2.37343 1.0566,3.4375 0.3522,1.0436 0.6834,1.95479 0.9942,2.73242 l 3.1445,9.24609 h 1.0196 l -4.1641,-12.24609 c -0.3108,-0.77763 -0.642,-1.68882 -0.9942,-2.73242 -0.3521,-1.06407 -0.7044,-2.20974 -1.0566,-3.4375 z m -8.5762,25.47656 -2.6718,7.79687 c -0.2281,0.57295 -0.6435,1.0938 -1.2442,1.56446 -0.58,0.45016 -1.3057,0.67578 -2.1758,0.67578 h -7.0273 l -1.1758,3 h 8.2031 c 0.8701,0 1.5958,-0.22562 2.1758,-0.67578 0.6007,-0.47066 1.0161,-0.99151 1.2442,-1.56446 l 2.6718,-7.79687 h 17.2149 l 2.6719,7.79687 c 0.29,0.65479 0.716,1.19527 1.2753,1.625 0.5594,0.40925 1.2936,0.61524 2.2051,0.61524 h 8.1426 l -1.1758,-3 h -6.9668 c -0.9115,0 -1.6457,-0.20599 -2.2051,-0.61524 -0.5593,-0.42973 -0.9853,-0.97021 -1.2753,-1.625 l -2.6719,-7.79687 z"
             style="font-style:normal;font-variant:normal;font-weight:900;font-stretch:normal;font-size:medium;line-height:1.25;font-family:Lato;-inkscape-font-specification:'Lato Heavy';letter-spacing:0px;word-spacing:0px;fill:#ffffff;fill-opacity:0.2;stroke:none;stroke-width:1.54419792"
             inkscape:connector-curvature="0" />
          <path
             id="path2263"
             transform="scale(0.26458333)"
             d="m 1153.3574,-551.83398 c 0,0.53203 -0.093,1.05288 -0.2793,1.56445 -0.1658,0.51157 -0.4041,0.99317 -0.7148,1.44336 l -21.2559,29.98828 h 2.127 l 19.1289,-26.98828 c 0.3107,-0.45019 0.549,-0.93179 0.7148,-1.44336 0.1865,-0.51157 0.2793,-1.03242 0.2793,-1.56445 z m -33.8711,4.23437 v 3 h 18.3828 l 2.127,-3 z m -1.7402,36.74219 v 3 h 34.9277 v -3 z"
             style="font-style:normal;font-variant:normal;font-weight:900;font-stretch:normal;font-size:medium;line-height:1.25;font-family:Lato;-inkscape-font-specification:'Lato Heavy';letter-spacing:0px;word-spacing:0px;fill:#ffffff;fill-opacity:0.2;stroke:none;stroke-width:1.54419792"
             inkscape:connector-curvature="0" />
          <path
             id="path2265"
             transform="scale(0.26458333)"
             d="m 1176.8105,-546.37109 c -0.3314,1.24822 -0.6732,2.40466 -1.0253,3.46875 -0.3315,1.06406 -0.6522,1.98411 -0.9629,2.76172 l -4.1641,12.18554 h 1.0254 l 3.1387,-9.18554 c 0.3107,-0.77761 0.6314,-1.69766 0.9629,-2.76172 0.3521,-1.06409 0.6939,-2.22053 1.0253,-3.46875 0.3522,1.22776 0.7045,2.37343 1.0567,3.4375 0.3522,1.0436 0.6834,1.95479 0.9941,2.73242 l 3.1446,9.24609 h 1.0195 l -4.1641,-12.24609 c -0.3107,-0.77763 -0.6419,-1.68882 -0.9941,-2.73242 -0.3522,-1.06407 -0.7045,-2.20974 -1.0567,-3.4375 z m -8.5761,25.47656 -2.6719,7.79687 c -0.228,0.57295 -0.6435,1.0938 -1.2441,1.56446 -0.5801,0.45016 -1.3057,0.67578 -2.1758,0.67578 h -7.0274 l -1.1757,3 h 8.2031 c 0.8701,0 1.5957,-0.22562 2.1758,-0.67578 0.6006,-0.47066 1.0161,-0.99151 1.2441,-1.56446 l 2.6719,-7.79687 h 17.2148 l 2.6719,7.79687 c 0.29,0.65479 0.716,1.19527 1.2754,1.625 0.5593,0.40925 1.2935,0.61524 2.2051,0.61524 h 8.1425 l -1.1757,-3 h -6.9668 c -0.9116,0 -1.6458,-0.20599 -2.2051,-0.61524 -0.5594,-0.42973 -0.9854,-0.97021 -1.2754,-1.625 l -2.6719,-7.79687 z"
             style="font-style:normal;font-variant:normal;font-weight:900;font-stretch:normal;font-size:medium;line-height:1.25;font-family:Lato;-inkscape-font-specification:'Lato Heavy';letter-spacing:0px;word-spacing:0px;fill:#ffffff;fill-opacity:0.2;stroke:none;stroke-width:1.54419792"
             inkscape:connector-curvature="0" />
          <path
             id="path2267"
             transform="scale(0.26458333)"
             d="m 1213.8164,-547.81445 v 3 h 4.2266 c 2.7138,0 4.7136,0.55319 5.998,1.6582 0.9659,0.81771 1.5712,1.87178 1.8223,3.16016 0.087,-0.50088 0.1347,-1.01897 0.1347,-1.55664 0,-1.96445 -0.6518,-3.49854 -1.957,-4.60352 -1.2844,-1.10501 -3.2842,-1.6582 -5.998,-1.6582 z m 22.3574,6.96875 c -0.089,0.91343 -0.2542,1.7953 -0.5117,2.63867 -0.3936,1.28915 -0.9842,2.48679 -1.7715,3.5918 -0.7665,1.08452 -1.718,2.05657 -2.8574,2.91601 -1.1187,0.85947 -2.4139,1.56472 -3.8848,2.11719 0.7044,0.34789 1.3563,0.7883 1.9571,1.32031 0.1788,0.15231 0.3419,0.33152 0.5097,0.50195 0.4972,-0.29174 0.9758,-0.59974 1.418,-0.93945 1.1394,-0.85944 2.0909,-1.83149 2.8574,-2.91601 0.7873,-1.10501 1.3779,-2.30265 1.7715,-3.5918 0.3936,-1.28917 0.5899,-2.66041 0.5899,-4.11328 0,-0.51997 -0.029,-1.02681 -0.078,-1.52539 z m -22.3574,13.44336 v 3 h 2.6738 c 0.808,0 1.4283,0.13241 1.8633,0.39843 0.4351,0.24557 0.8295,0.6448 1.1817,1.19727 l 7.5195,12.98437 c 0.7665,1.30964 2.0301,1.96485 3.791,1.96485 h 9.5098 l -1.8575,-3 h -7.6523 c -1.7609,0 -3.0245,-0.65521 -3.791,-1.96485 l -7.5195,-12.98437 c -0.3522,-0.55247 -0.7466,-0.9517 -1.1817,-1.19727 -0.435,-0.26602 -1.0553,-0.39843 -1.8633,-0.39843 z m -10.5019,16.54492 v 3 h 10.5019 v -3 z"
             style="font-style:normal;font-variant:normal;font-weight:900;font-stretch:normal;font-size:medium;line-height:1.25;font-family:Lato;-inkscape-font-specification:'Lato Heavy';letter-spacing:0px;word-spacing:0px;fill:#ffffff;fill-opacity:0.2;stroke:none;stroke-width:1.54419792"
             inkscape:connector-curvature="0" />
        </g>
        <path
           inkscape:connector-curvature="0"
           id="path2271"
           d="m 88.118025,-147.77456 -0.392223,0.72347 c -0.08221,0.12994 -0.169855,0.22752 -0.263033,0.29249 -0.08771,0.065 -0.202692,0.0971 -0.3452,0.0971 -0.126066,0 -0.26335,-0.0379 -0.411345,-0.11369 -0.14252,-0.0812 -0.306638,-0.17023 -0.492992,-0.26768 -0.180888,-0.0975 -0.389591,-0.18414 -0.625285,-0.25994 -0.235693,-0.0812 -0.504169,-0.12195 -0.805635,-0.12195 -0.520721,0 -0.909759,0.11133 -1.167371,0.33331 -0.252134,0.21656 -0.378272,0.51164 -0.378272,0.88522 0,0.13095 0.02545,0.24808 0.07183,0.3545 0.06185,-0.17386 0.163111,-0.32286 0.306443,-0.44597 0.257612,-0.22198 0.64665,-0.33331 1.167371,-0.33331 0.301466,0 0.569942,0.0407 0.805635,0.12195 0.235694,0.0758 0.444397,0.16248 0.625285,0.25994 0.186354,0.0974 0.350472,0.18647 0.492992,0.26768 0.147995,0.0758 0.285279,0.11369 0.411345,0.11369 0.142508,0 0.257493,-0.0321 0.3452,-0.0971 0.09318,-0.065 0.180819,-0.16255 0.263033,-0.29249 l 0.690914,-1.27486 c -0.09333,-0.0851 -0.193873,-0.16553 -0.298691,-0.24236 z m -7.459493,2.15025 c -0.01262,0.11581 -0.02016,0.23253 -0.02016,0.34985 0,0.55224 0.077,1.01782 0.230476,1.39682 0.153479,0.37357 0.353311,0.68759 0.599964,0.94206 0.252132,0.24905 0.537331,0.45174 0.855244,0.60875 0.317908,0.1516 0.643874,0.28187 0.978236,0.39015 0.334351,0.10287 0.660837,0.19759 0.978752,0.28422 0.317905,0.0866 0.5998,0.18655 0.846458,0.30024 0.25214,0.1137 0.455276,0.25722 0.60875,0.43047 0.08265,0.0933 0.141177,0.20293 0.179316,0.32608 0.03311,-0.13384 0.05064,-0.28148 0.05064,-0.44545 0,-0.27612 -0.07649,-0.50112 -0.22996,-0.67438 -0.153474,-0.17325 -0.35661,-0.31677 -0.60875,-0.43047 -0.246658,-0.11369 -0.528553,-0.21361 -0.846458,-0.30024 -0.317915,-0.0866 -0.644401,-0.18135 -0.978752,-0.28422 -0.334362,-0.10828 -0.660328,-0.23855 -0.978236,-0.39015 -0.317913,-0.15701 -0.603112,-0.3597 -0.855244,-0.60875 -0.246653,-0.25447 -0.446485,-0.56849 -0.599964,-0.94206 -0.110273,-0.27232 -0.179282,-0.59116 -0.210323,-0.95292 z m 7.903911,4.61626 c -0.03616,0.39576 -0.125738,0.77171 -0.269235,1.1281 -0.191841,0.47643 -0.471461,0.89322 -0.838708,1.25057 -0.361762,0.35192 -0.81108,0.6309 -1.348239,0.83664 -0.531681,0.20032 -1.13727,0.30024 -1.816942,0.30024 -0.372721,0 -0.753911,-0.0379 -1.143084,-0.11369 -0.383686,-0.0758 -0.756518,-0.18143 -1.118278,-0.31678 -0.361759,-0.14077 -0.701662,-0.30557 -1.019574,-0.49506 -0.182198,-0.1086 -0.349174,-0.22547 -0.504365,-0.3483 l -0.326078,0.5085 c 0.235694,0.23281 0.512527,0.44406 0.830443,0.63355 0.317912,0.18949 0.657815,0.35429 1.019574,0.49506 0.36176,0.13535 0.734592,0.24098 1.118278,0.31678 0.389173,0.0758 0.770363,0.11369 1.143084,0.11369 0.679672,0 1.285261,-0.0999 1.816942,-0.30024 0.537159,-0.20574 0.986477,-0.48472 1.348239,-0.83664 0.367247,-0.35735 0.646867,-0.77414 0.838708,-1.25057 0.191839,-0.47645 0.287838,-0.98797 0.287838,-1.5348 0,-0.13481 -0.0071,-0.26318 -0.0186,-0.38705 z"
           style="font-style:normal;font-variant:normal;font-weight:900;font-stretch:normal;font-size:medium;line-height:1.25;font-family:Lato;-inkscape-font-specification:'Lato Heavy';letter-spacing:0px;word-spacing:0px;fill:#ffffff;fill-opacity:0;stroke:none;stroke-width:0.40856904" />
        <path
           inkscape:connector-curvature="0"
           id="path2273"
           d="m 94.649934,-147.01854 c -0.08771,0.33026 -0.178117,0.63624 -0.271304,0.91778 -0.08771,0.28153 -0.173064,0.52496 -0.255296,0.7307 l -1.101725,3.22409 h 0.271304 l 0.830421,-2.43034 c 0.08223,-0.20574 0.167587,-0.44917 0.255296,-0.7307 0.09319,-0.28154 0.183595,-0.58752 0.271304,-0.91778 0.09316,0.32485 0.18587,0.62797 0.279056,0.90951 0.09316,0.27612 0.181319,0.5172 0.263552,0.72295 l 0.831982,2.44636 h 0.269743 l -1.101725,-3.24011 c -0.08223,-0.20575 -0.170392,-0.44683 -0.263552,-0.72295 -0.09319,-0.28154 -0.185896,-0.58466 -0.279056,-0.90951 z m -2.269649,6.74068 -0.706913,2.06292 c -0.06035,0.15159 -0.169757,0.2894 -0.328666,0.41393 -0.153485,0.1191 -0.345466,0.1788 -0.57568,0.1788 h -1.859317 l -0.311092,0.79375 h 2.170409 c 0.230214,0 0.422195,-0.0597 0.57568,-0.1788 0.158909,-0.12453 0.268314,-0.26234 0.328666,-0.41393 l 0.706913,-2.06292 h 4.555279 l 0.70694,2.06292 c 0.07673,0.17325 0.188939,0.31625 0.336947,0.42995 0.147981,0.10828 0.342767,0.16278 0.583935,0.16278 h 2.153864 l -0.31109,-0.79375 h -1.842774 c -0.241168,0 -0.435954,-0.0545 -0.583935,-0.16278 -0.148008,-0.1137 -0.260218,-0.2567 -0.336947,-0.42995 l -0.70694,-2.06292 z"
           style="font-style:normal;font-variant:normal;font-weight:900;font-stretch:normal;font-size:medium;line-height:1.25;font-family:Lato;-inkscape-font-specification:'Lato Heavy';letter-spacing:0px;word-spacing:0px;fill:#ffffff;fill-opacity:0;stroke:none;stroke-width:0.40856904" />
        <path
           inkscape:connector-curvature="0"
           id="path2275"
           d="m 101.6619,-137.62221 v 0.79375 h 7.21867 v -0.79375 z"
           style="font-style:normal;font-variant:normal;font-weight:900;font-stretch:normal;font-size:medium;line-height:1.25;font-family:Lato;-inkscape-font-specification:'Lato Heavy';letter-spacing:0px;word-spacing:0px;fill:#ffffff;fill-opacity:0;stroke:none;stroke-width:0.40856904" />
        <path
           inkscape:connector-curvature="0"
           id="path2277"
           d="m 114.97943,-147.01854 c -0.0877,0.33026 -0.17812,0.63624 -0.2713,0.91778 -0.0877,0.28153 -0.17254,0.52496 -0.25477,0.7307 l -1.10172,3.22409 h 0.2713 l 0.83042,-2.43034 c 0.0822,-0.20574 0.16709,-0.44917 0.25477,-0.7307 0.0932,-0.28154 0.18359,-0.58752 0.2713,-0.91778 0.0932,0.32485 0.1864,0.62797 0.27956,0.90951 0.0932,0.27612 0.18082,0.5172 0.26305,0.72295 l 0.83198,2.44636 h 0.26977 l -1.10175,-3.24011 c -0.0822,-0.20575 -0.16986,-0.44683 -0.26305,-0.72295 -0.0932,-0.28154 -0.18637,-0.58466 -0.27956,-0.90951 z m -2.26912,6.74068 -0.70691,2.06292 c -0.0603,0.15159 -0.17026,0.2894 -0.3292,0.41393 -0.15345,0.1191 -0.34546,0.1788 -0.57568,0.1788 h -1.8593 l -0.3111,0.79375 h 2.1704 c 0.23022,0 0.42223,-0.0597 0.57568,-0.1788 0.15894,-0.12453 0.26885,-0.26234 0.3292,-0.41393 l 0.70691,-2.06292 h 4.55478 l 0.70694,2.06292 c 0.0767,0.17325 0.18944,0.31625 0.33742,0.42995 0.14801,0.10828 0.34227,0.16278 0.58343,0.16278 h 2.1544 l -0.3111,-0.79375 h -1.8433 c -0.24116,0 -0.43542,-0.0545 -0.58343,-0.16278 -0.14798,-0.1137 -0.26069,-0.2567 -0.33742,-0.42995 l -0.70694,-2.06292 z"
           style="font-style:normal;font-variant:normal;font-weight:900;font-stretch:normal;font-size:medium;line-height:1.25;font-family:Lato;-inkscape-font-specification:'Lato Heavy';letter-spacing:0px;word-spacing:0px;fill:#ffffff;fill-opacity:0;stroke:none;stroke-width:0.40856904" />
        <path
           inkscape:connector-curvature="0"
           id="path2279"
           d="m 130.48494,-148.46393 c 0,0.14077 -0.0246,0.27858 -0.0739,0.41393 -0.0439,0.13535 -0.10691,0.26278 -0.18912,0.38189 l -5.62396,7.9344 h 0.56277 l 5.06119,-7.14065 c 0.0822,-0.11911 0.14526,-0.24654 0.18912,-0.38189 0.0493,-0.13535 0.0739,-0.27316 0.0739,-0.41393 z m -8.96173,1.12035 v 0.79375 h 4.86379 l 0.56276,-0.79375 z m -0.46042,9.72137 v 0.79375 h 9.24128 v -0.79375 z"
           style="font-style:normal;font-variant:normal;font-weight:900;font-stretch:normal;font-size:medium;line-height:1.25;font-family:Lato;-inkscape-font-specification:'Lato Heavy';letter-spacing:0px;word-spacing:0px;fill:#ffffff;fill-opacity:0;stroke:none;stroke-width:0.40856904" />
        <path
           inkscape:connector-curvature="0"
           id="path2281"
           d="m 136.69024,-147.01854 c -0.0877,0.33026 -0.17812,0.63624 -0.27128,0.91778 -0.0877,0.28153 -0.17256,0.52496 -0.25476,0.7307 l -1.10176,3.22409 h 0.27131 l 0.83045,-2.43034 c 0.0822,-0.20574 0.16705,-0.44917 0.25476,-0.7307 0.0932,-0.28154 0.1836,-0.58752 0.27128,-0.91778 0.0932,0.32485 0.1864,0.62797 0.27959,0.90951 0.0932,0.27612 0.18081,0.5172 0.26302,0.72295 l 0.83201,2.44636 h 0.26974 l -1.10175,-3.24011 c -0.0822,-0.20575 -0.16984,-0.44683 -0.26302,-0.72295 -0.0932,-0.28154 -0.1864,-0.58466 -0.27959,-0.90951 z m -2.26909,6.74068 -0.70694,2.06292 c -0.0603,0.15159 -0.17026,0.2894 -0.32917,0.41393 -0.15349,0.1191 -0.34547,0.1788 -0.57568,0.1788 h -1.85933 l -0.31107,0.79375 h 2.1704 c 0.23021,0 0.42219,-0.0597 0.57568,-0.1788 0.15891,-0.12453 0.26884,-0.26234 0.32917,-0.41393 l 0.70694,-2.06292 h 4.55475 l 0.70694,2.06292 c 0.0767,0.17325 0.18944,0.31625 0.33745,0.42995 0.14798,0.10828 0.34224,0.16278 0.58343,0.16278 h 2.15437 l -0.31107,-0.79375 h -1.8433 c -0.24119,0 -0.43545,-0.0545 -0.58343,-0.16278 -0.14801,-0.1137 -0.26072,-0.2567 -0.33745,-0.42995 l -0.70694,-2.06292 z"
           style="font-style:normal;font-variant:normal;font-weight:900;font-stretch:normal;font-size:medium;line-height:1.25;font-family:Lato;-inkscape-font-specification:'Lato Heavy';letter-spacing:0px;word-spacing:0px;fill:#ffffff;fill-opacity:0;stroke:none;stroke-width:0.40856904" />
        <path
           inkscape:connector-curvature="0"
           id="path2283"
           d="m 146.48139,-147.40042 v 0.79375 h 1.11828 c 0.71803,0 1.24714,0.14636 1.58697,0.43873 0.25556,0.21635 0.41572,0.49524 0.48215,0.83612 0.023,-0.13252 0.0356,-0.2696 0.0356,-0.41186 0,-0.51976 -0.17245,-0.92565 -0.51779,-1.21801 -0.33983,-0.29237 -0.86894,-0.43873 -1.58697,-0.43873 z m 5.91539,1.84381 c -0.0236,0.24168 -0.0673,0.47501 -0.13539,0.69815 -0.10414,0.34109 -0.2604,0.65796 -0.46871,0.95033 -0.2028,0.28694 -0.45455,0.54413 -0.75602,0.77153 -0.29599,0.2274 -0.63867,0.414 -1.02785,0.56017 0.18637,0.0921 0.35885,0.20857 0.51782,0.34933 0.0473,0.0403 0.0905,0.0877 0.13485,0.13281 0.13156,-0.0772 0.25818,-0.15868 0.37518,-0.24856 0.30147,-0.2274 0.55322,-0.48459 0.75602,-0.77153 0.20831,-0.29237 0.36457,-0.60924 0.46871,-0.95033 0.10414,-0.34109 0.15608,-0.7039 0.15608,-1.08831 0,-0.13757 -0.008,-0.27167 -0.0206,-0.40359 z m -5.91539,3.55689 v 0.79375 h 0.70744 c 0.21378,0 0.3779,0.035 0.493,0.10542 0.11512,0.065 0.21947,0.1706 0.31265,0.31677 l 1.98954,3.43545 c 0.2028,0.34651 0.53713,0.51987 1.00303,0.51987 h 2.51614 l -0.49146,-0.79375 h -2.02468 c -0.4659,0 -0.80023,-0.17336 -1.00303,-0.51987 l -1.98954,-3.43545 c -0.0932,-0.14617 -0.19753,-0.2518 -0.31265,-0.31677 -0.1151,-0.0704 -0.27922,-0.10542 -0.493,-0.10542 z m -2.77863,4.37751 v 0.79375 h 2.77863 v -0.79375 z"
           style="font-style:normal;font-variant:normal;font-weight:900;font-stretch:normal;font-size:medium;line-height:1.25;font-family:Lato;-inkscape-font-specification:'Lato Heavy';letter-spacing:0px;word-spacing:0px;fill:#ffffff;fill-opacity:0;stroke:none;stroke-width:0.40856904" />
      </g>
      <path
         style="fill:none;stroke:#a06734;stroke-width:0.26458332px;stroke-linecap:butt;stroke-linejoin:miter;stroke-opacity:1"
         d="m 1531.885,-180.40772 c 0.4492,0.43169 8.6275,-0.0871 10.9004,-1.22353 0.8141,-0.40706 9.4582,0 11.1125,0 2.6596,0 11.1215,-0.39238 12.9646,0.52917 0.8466,0.42333 2.3283,-0.42333 3.175,0 0.752,0.37603 7.7208,1.29895 8.7312,0.79375 3.1321,-1.56604 8.048,-0.26458 11.3771,-0.26458 2.1047,0 14.985,0.0482 16.1396,-0.52917 1.5135,-0.75676 4.783,0.26458 6.35,0.26458 8.7743,0 16.8155,-0.26458 25.6646,-0.26458 0.7591,0 4.2794,-0.48311 4.7625,0 0.7846,0.78464 10.5643,0.52917 12.7,0.52917 2.3809,0 14.2024,1.10088 15.3458,0.52916 3.4523,-1.72615 12.9642,-0.72221 13.3605,-1.09967"
         id="path2288"
         inkscape:connector-curvature="0"
         sodipodi:nodetypes="ccscccscsscscc" />
      <path
         style="fill:none;stroke:#a06734;stroke-width:0.26499999;stroke-linecap:butt;stroke-linejoin:miter;stroke-miterlimit:4;stroke-dasharray:none;stroke-opacity:1"
         d="m 1682.8575,-182.72265 c -0.4262,0.41048 -3.4706,0.17301 -4.87,0.0331 -0.8939,-0.0894 -1.8085,-0.31984 -2.6459,-0.52917 -1.0963,-0.27408 -12.5965,0.16113 -13.2291,0.79375 -0.084,0.0838 -6.9228,0 -7.6729,0 -0.6578,0 -6.2358,-0.64342 -6.6146,-0.26458 -0.3447,0.34472 -1.7852,0.52917 -2.3813,0.52917 -1.8744,0 -9.5715,-0.90276 -10.8479,-0.26459 -0.6569,0.32844 -11.6024,1.36215 -12.1708,0.79375 -0.7362,-0.73619 -3.1168,0.0291 -4.2334,-0.52916 -0.6697,-0.33487 -2.6659,0.509 -3.175,0 -0.4409,-0.44098 -1.9402,0.17638 -2.3812,-0.26459 -0.4447,-0.44474 -1.7832,-0.26458 -2.6458,-0.26458 -3.6871,0 -19.4025,-1.49965 -21.1667,0.26458 -0.075,0.0751 -6.2067,0 -6.8792,0 -6.0142,0 -13.9239,-0.26458 -19.5791,-0.26458 -2.4556,0 -8.413,0.68829 -10.3188,-0.26458 -1.3973,-0.69866 -17.1828,1.45521 -18.0826,0.51263"
         id="path2290"
         inkscape:connector-curvature="0"
         sodipodi:nodetypes="ccccscscccccscsscc" />
      <path
         style="fill:none;stroke:#a06734;stroke-width:0.26499999;stroke-linecap:butt;stroke-linejoin:miter;stroke-miterlimit:4;stroke-dasharray:none;stroke-opacity:1"
         d="m 1535.2713,-183.7218 c 0.3975,0.39712 16.4578,-0.54016 22.553,-0.22388 0.9501,0.0493 3.6355,-0.0408 4.3945,0.038 0.5695,0.0591 5.486,0.0891 6.2247,0.038 1.7064,-0.11804 3.8644,-0.0388 5.676,-0.11401 0.6166,-0.0256 1.8018,0.06 2.38,0 1.55,-0.16087 8.1068,-0.11399 10.436,-0.11399 2.0761,0 4.8855,-0.0927 6.7743,0.038 1.0839,0.075 2.5389,-0.0202 3.6617,0.038 1.2329,0.064 2.6324,-0.009 3.8447,0.076 0.7693,0.0532 1.7944,-0.0532 2.5631,0 1.6077,0.11121 3.6011,0.10136 5.3097,0.19001 1.0701,0.0555 2.4352,-0.0722 3.4788,0 2.8212,0.19519 6.8581,-0.0497 9.8867,0.076 1.7869,0.0742 8.5899,0.0197 10.436,-0.076 1.9732,-0.10239 4.2911,0.0578 6.2251,-0.076 0.6326,-0.0438 1.7071,0 2.38,0 1.8355,0 6.4829,0.0303 7.8729,-0.114 0.7077,-0.0734 1.9713,0.0402 2.7463,0 2.4317,-0.12617 12.4261,-0.28003 14.1136,0.0702 0.3131,0.0647 15.172,0.41449 15.5165,0.0665"
         id="path2292"
         inkscape:connector-curvature="0"
         sodipodi:nodetypes="ccccccscccccccccscccc" />
    </g>
  </g>
</svg>
